<?xml version="1.0" encoding="utf-8"?>
<!-- Generator: Adobe Illustrator 20.1.0, SVG Export Plug-In . SVG Version: 6.00 Build 0)  -->
<svg version="1.1" id="Capa_1" xmlns="http://www.w3.org/2000/svg" xmlns:xlink="http://www.w3.org/1999/xlink" x="0px" y="0px"
	 viewBox="0 0 500 500" style="enable-background:new 0 0 500 500;" xml:space="preserve">
<style type="text/css">
	.st0{fill:#EEEDEB;}
	.st1{fill:#884D2B;}
	.st2{fill:#009045;}
	.st3{fill:#FFFFFF;}
	.st4{fill:#009045;stroke:#009045;stroke-width:1.6211;stroke-linecap:round;stroke-linejoin:round;stroke-miterlimit:10;}
	.st5{fill:#BF8C16;}
	.st6{fill:none;stroke:#884D2B;stroke-width:0.9726;stroke-linecap:round;stroke-linejoin:round;stroke-miterlimit:10;}
</style>
<circle class="st0" cx="250" cy="249.9" r="248.5"/>
<g>
	<g>
		<path class="st1" d="M206.5,263.1c0,0-7.6,24.4-8.9,31.5c-1.3,7-0.8,10.1,0,10.6c0.8,0.5,5-6.3,5.8-5.8c0.8,0.4-1.6,15.2,0.7,15.8
			c2.3,0.6,8.3-13.5,9.9-13.1c1.6,0.4-1.6,21.7,0,22c1.6,0.3,5.3-12.3,6.9-12s2.9,15.2,4.9,15.2s4.5-20.4,6.4-20.2
			c1.9,0.2,4.4,17.4,6.2,17.5s5.2-26,6.8-26s3.9,25.8,5.9,25.8s4.8-17.4,6.6-17.4c1.8,0,5,20.2,6.6,20.2c1.6,0,3.4-15,4.9-15
			c1.6,0,4.8,12.4,6.8,12.4c2,0-2.1-22,0-22.4c2.1-0.3,7.7,14.7,10,14.1c2.2-0.6-0.9-16.8,0.6-17.4c1.5-0.6,4.1,7.2,5.8,6.7
			c1.7-0.4,2.5-12.5-1.8-22.9c-4.3-10.4-7.9-19.9-7.9-19.9H206.5z"/>
	</g>
	<g>
		<path class="st1" d="M246.3,325.6c-0.2-1.1-1.7-1-2,0c-2.5,11.7-9.1,43.6-9.1,57.9c0,14.7,6.8,49.1,9.2,60.4
			c0.2,1,1.6,1.1,1.9,0.1c2.6-8.7,8.8-32.2,8.8-59.6C255.1,367.1,248.8,336.8,246.3,325.6z"/>
	</g>
	<g>
		<path class="st1" d="M234,323.2c0-0.9-1.2-1.1-1.6-0.3c-4.1,10.7-15,40.1-17.5,53.8c-2.6,14-3,47.8-3.1,58.9
			c0,0.9,1.2,1.1,1.5,0.3c3.6-7.9,12.8-29.3,17.6-55.4C234,364,234.1,334.2,234,323.2z"/>
	</g>
	<g>
		<path class="st1" d="M256.4,322.6c0-1,1.4-1.2,1.7-0.3c4.2,11,14.9,39.9,17.4,53.4c2.5,13.8,3,47,3.1,58.5c0,1-1.3,1.2-1.7,0.4
			c-3.7-8.2-12.7-29.4-17.4-55C256.5,363.2,256.3,333.9,256.4,322.6z"/>
	</g>
	<g>
		<path class="st1" d="M270,328.9c-0.1-0.9,1.1-1.3,1.5-0.5c4.6,8.3,15.8,28.5,19.1,38.3c3.5,10.1,7.6,34.7,9.1,43.9
			c0.1,0.8-1,1.3-1.4,0.6c-4-6.1-13-21-19.4-39.6C274.7,359.6,271.3,338,270,328.9z"/>
	</g>
	<g>
		<path class="st1" d="M281.1,323.4c-0.2-0.9,0.9-1.4,1.4-0.7c5.1,7.1,16.7,23.7,20.6,32.1c4,8.6,10,29.7,12.2,38
			c0.2,0.8-0.8,1.4-1.4,0.7c-4.2-5.2-13.5-17.5-20.9-33.3C288.3,350.2,283.2,331.6,281.1,323.4z"/>
	</g>
	<g>
		<path class="st1" d="M293.5,317.1c-0.3-1,1-1.6,1.6-0.8c5.5,7.2,17.1,22.9,21.2,30.9c4.2,8.3,10.6,28.5,13.2,37
			c0.3,0.9-0.9,1.6-1.5,0.9c-4.6-5.3-13.9-17.1-21.6-32.2C301.4,343.2,295.9,325.5,293.5,317.1z"/>
	</g>
	<g>
		<path class="st1" d="M197.3,318.2c0.3-1-0.9-1.6-1.6-0.8c-5.2,6.5-15.8,20-19.6,27c-3.9,7.2-10.1,24.8-12.7,32.7
			c-0.3,0.9,0.9,1.6,1.5,0.9c4.3-4.8,12.9-15.1,20-28.2C189.5,341.3,194.8,325.9,197.3,318.2z"/>
	</g>
	<g>
		<path class="st1" d="M220.4,328.8c0.1-1-1.2-1.4-1.7-0.6c-4.6,8.4-14.9,27.5-18.1,36.8c-3.2,9.7-7,32.8-8.4,42.2
			c-0.1,1,1.1,1.4,1.6,0.6c4-6.2,12.3-20.5,18.3-38.2C216,358.3,219.1,337.9,220.4,328.8z"/>
	</g>
	<g>
		<path class="st1" d="M209,324.3c0.3-1.1-1.1-1.7-1.8-0.8c-5.6,7.9-17.2,24.6-21.3,33.1c-4.2,8.8-10.2,30.1-12.8,39.3
			c-0.3,1,1,1.7,1.7,0.9c4.7-5.8,14.1-18.5,21.7-34.5C201.5,352,206.7,333.3,209,324.3z"/>
	</g>
</g>
<g>
	<path class="st2" d="M223.7,67.2c-2.4-1.9-5.1-3.3-7.7-4.8c-1.3-0.7-2.3-1.8-2.7-3.3c-0.3-1.1,0.1-1.7,1.2-2.1c1-0.3,1.9,0,2.8,0.3
		c4.1,1.5,7.8,3.7,11.4,6.3c4.5,3.2,7.8,7.4,10.5,12.1c0.1,0.2,0.2,0.5,0.2,0.7c0,1.4,0.3,2.7,1.1,3.9c1.5,2.2,2.7,4.6,4,6.9
		c0.1,0.1,0.2,0.3,0.1,0.5c-0.4-0.3-0.7-0.7-0.9-1.1c-0.7-1.2-1.5-2.3-2.2-3.5c-1-1.9-2.5-3-4.5-3.6c-0.3-0.1-0.6-0.2-0.9-0.3
		c-0.2-0.1-0.3-0.1-0.4-0.2c-1.9-1.7-3.7-3.4-5.3-5.3c-1.3-1.5-2.7-2.8-4.3-3.9c-0.1-0.1-0.3-0.1-0.3-0.3c0.5,0.1,0.9,0.2,1.4-0.1
		c-0.8-0.3-1.5-0.5-2.3-1c0.5,0,0.9,0.2,1.4,0.2C225.2,68.1,224.3,67.8,223.7,67.2z"/>
</g>
<g>
	<path class="st2" d="M233.9,60.9c-1.4-2.7-3.3-5.1-5.1-7.6c-0.9-1.2-1.3-2.6-1.1-4.1c0.2-1.1,0.8-1.5,1.9-1.4
		c1,0.1,1.7,0.8,2.4,1.4c3.1,3.1,5.6,6.7,7.8,10.4c2.8,4.7,4,9.9,4.5,15.3c0,0.3,0,0.5-0.1,0.7c-0.6,1.3-0.9,2.6-0.6,4
		c0.4,2.6,0.6,5.3,0.8,7.9c0,0.2,0.1,0.3-0.1,0.5c-0.2-0.4-0.3-0.9-0.4-1.4c-0.2-1.4-0.4-2.7-0.5-4.1c-0.1-2.1-1-3.8-2.6-5.1
		c-0.2-0.2-0.4-0.4-0.7-0.6c-0.1-0.1-0.2-0.2-0.3-0.4c-1-2.3-1.9-4.7-2.7-7.1c-0.6-1.9-1.3-3.7-2.3-5.3c-0.1-0.1-0.2-0.2-0.1-0.4
		c0.4,0.3,0.7,0.6,1.3,0.5c-0.6-0.6-1.2-1.1-1.7-1.9c0.5,0.2,0.7,0.6,1.2,0.7C234.9,62.3,234.3,61.7,233.9,60.9z"/>
</g>
<g>
	<path class="st1" d="M273,98.1c2.9-1,8.4-3.7,10,1c0.9-4.9-1.2-9.7-6-10.8c-3.5-0.8-1.1-0.5-4.7-0.9c-1.4-0.2-2.8-0.8-3.6-2
		c-1.7-2.4-4.1-3.9-7.1-4.5c-4-0.8-8-0.6-12.1,0c-9.1,1.2-18.3,2.5-27.5,1.9c-2.2-0.2-4.4-0.6-7-0.3c3.6,6.3,8.1,11.1,15.6,12
		c2.9,0.4,2.7,1.6,0.6,4.6c-2.4,3.4-3.9,7.3-4.7,11.4c-1.5,7.6-5.4,12.9-12.3,15.6c-0.6,0.2-1.3,0.3-1.7,1.1
		c4.4,1.9,8.9,1.4,13.8,0.8c-0.2,0.4-0.5,0.9-0.8,1.3c-2.8,4.6-12.8,11.4-15.9,13.3c-0.3,0.2-0.1,0.6,0.2,0.6
		c10.9,0.3,16.9-1.8,23.2-3.7c2.7-0.8,5.4-0.1,4.9,1.7c-0.6,2.5-0.8,4.3-2.1,7.1c2.7-0.6,8-7,9.8-9.5c0.9-1.4,2.3-1.6,3.3,0.1
		c2.1,3.3,3.8,5.4,6.6,7.2c0.9,0.6,2.1,1.3,2.8,0.5c0.4-0.5-1-1.1-1.5-3.2c-0.5-2,0.7-3.1,2.1-3.6c1.4-0.5,3.3,0.3,4.8,0.8
		c5.2,1.6,16.7,3.3,16.9,2.1c0.1-0.8-1.3-0.6-4-2.3c-4.5-2.8-8.3-6.7-11-10.8c-2-3-3.4-6.4-3.9-10.5C260.3,109.6,265,100.7,273,98.1
		z"/>
</g>
<path class="st3" d="M249.1,87.5c2-2,4.3-2.6,6.8-2.3c1.2,0.1,2.5,0.5,3.7,0.7c0.8,0.1,1.6,0.2,2.4,0c0.2,0,0.4,0,0.5-0.2
	c0.1-0.3-0.2-0.4-0.4-0.5c-0.6-0.5-1.4-0.8-2.1-1.1c1.6-0.1,3.1,0.2,4.5,1.1c1.3,0.9,1.6,2.9,0.7,4.1c-0.2-0.4-0.4-0.8-0.6-1.1
	c-0.1-0.2-0.2-0.6-0.6-0.5c-0.3,0.1-0.3,0.4-0.3,0.6c-0.2,0.7-0.3,1.4-0.5,2c-0.7,2.2-2.1,3.4-4.5,3.5c2.1-0.9,3.1-2.5,3.1-4.9
	c-0.4,0.3-0.3,0.6-0.3,0.9c-0.7,2.7-2.7,3.8-5.6,3.2c-2.4-0.5-3.8-2.7-3.4-5.2c0.2-1.3,0.2-1.3-1.1-1C250.8,87,250,87.2,249.1,87.5z
	 M255.4,90.3c-0.1,0.3-0.3,0.5-0.4,0.8c-0.1,0.2-0.1,0.3,0.1,0.5c1.3,1.2,4.4,0.7,5.2-0.9c0.1-0.1,0.2-0.3,0.1-0.4
	c-0.4-0.6-0.1-0.8,0.4-1.2c0.4-0.3,0.4-0.9,0.2-1.4c-0.1-0.3-0.6-0.2-0.8-0.2c-0.4,0-0.1,0.3-0.2,0.5c0,0.1,0,0.3,0,0.4
	c0,1.1-0.6,2-1.5,2.3c-0.9,0.3-2.1,0-2.7-0.7c-0.7-0.8-0.8-1.8-0.4-2.8c0.1-0.2,0.3-0.3,0.3-0.6c-2-0.2-2.1-0.4-2.3,2
	c0,0.2,0,0.4,0,0.6c0,0.6,0.3,0.9,0.9,0.6c0.1-0.1,0.2-0.1,0.4,0c0.1,0.2-0.3,0.3-0.2,0.6C254.8,90.5,255,90.1,255.4,90.3z
	 M258.7,88.6c0.2,0,0.4-0.2,0.4-0.4c0-0.3-0.2-0.4-0.5-0.4c-0.3,0-0.4,0.2-0.4,0.4C258.2,88.4,258.4,88.6,258.7,88.6z"/>
<g>
	<path class="st4" d="M141.5,386.4c0.2-12.2,1-24.2,5.6-35.3c0.3,0.8,0.6,1.6,0.5,2.3c-0.2,3.6-0.6,7.1-2,10.4
		c-0.2,0.5,0.1,1.5,0.2,2.3c0.8-1.3,1.1-2.4,1.4-3.5c1.2-4.5,2.5-8.9,1-13.7c-0.1-0.4,0-0.9,0.1-1.4c1.3-4.8,2.8-9.5,3.7-14.5
		c0.8-4.3,0.9-8.7,1.1-13.1c0.1-3.2-0.3-6.5-0.3-9.7c-0.1-6,1.3-11.6,3.2-17.1c0.7-1.9,1.8-8.7,3.4-8.9c1.2-0.2,2.4-0.4,3.7-0.5
		c3.2-0.2,6.4-0.4,9.5-0.6v-27c-0.2,0-0.3-0.1-0.5-0.1c-4.2-0.4-8.5-0.5-12.7-0.5c-1.4,0-2.1-1.3-2.7-2.7
		c-2.6-6.9-4.8-13.7-4.4-21.6c0.3-5.6,0.3-11.3-0.1-17c-0.5-6.1-1.6-11.9-3.8-17.1c-2-4.9-2.2-9.6-1.5-14.6c0.3-1.9,0.3-3.8,0.5-5.7
		c-0.2,0-0.4-0.1-0.6-0.1c-0.6,3.8-1.2,7.6-1.8,11.4c-0.2,0-0.4,0.1-0.7,0.1c-0.9-5.4-2.2-10.7-2.5-16.2c-0.3-5.5,0.5-11.2,0.8-16.7
		c-2.3,7.2-2.7,14.7-2.1,22.4c0.6,7.8,3.2,14.7,5.9,21.6c-1.8-1.4-3.5-2.8-4.6-4.7c-1.1-1.9-1.6-4.3-2.4-6.5
		c-0.2,0.1-0.4,0.2-0.7,0.3c0.5,2,0.7,4.2,1.6,5.8c1.3,2.3,3.2,4,4.7,6.1c1.2,1.7,2.7,3.6,3.2,5.7c0.7,3,0.8,6.3,0.9,9.5
		c0.1,4.5,0,9.1,0,13.7c0,0.6-0.1,1.2-0.2,2.2c-0.4-0.7-0.5-0.9-0.6-1.1c-0.3-0.7-0.6-1.4-0.7-2.2c-1.1-5-3.7-8.8-6.8-12
		c-2-2.1-3.6-4.2-3.5-7.7c0-0.6-0.4-1.3-0.6-1.9c-1.1,5.8-1.5,11.5-3.8,16.7c-0.3-0.3-0.5-0.4-0.6-0.6c-0.1-0.2-0.2-0.5-0.1-0.7
		c1-3.6-0.4-6.6-1.7-9.5c-1.7-3.8-1.9-7.5-1-11.5c0.6-3,0.7-5.9-1.6-8.3c2,4.7-0.3,9-0.4,13.6c-1.2-1.4-2-3-3-4.4
		c-1.3-1.9-1.8-4.1-1.9-6.7c-0.1-2.6-0.5-5.4-2.4-7.4c-0.2,1.1-0.3,2.3,0,3.2c0.8,2.5,0.8,2.7-0.5,5c-0.2,0.3-0.1,1,0.1,1.3
		c1.3,2.3,2.7,4.6,4,6.9c1.9,3.2,3.9,6.4,5.7,9.6c0.3,0.5,0.2,1.3,0.3,1.7c-2-0.6-3.9-1.1-5.7-1.8c-0.8-0.3-1.7-0.8-2.4-1.4
		c-1.7-1.7-3.4-3.5-4.8-5c0-0.3-0.1,0.2,0,0.5c2.3,4.1,5.1,7.4,9.4,8.1c3.1,0.5,4.9,3.7,4.3,7.3c-0.6,3.4-1.4,6.8-2,10
		c-2.2-1.1-4.3-2.1-6.3-3.2c-1-0.6-2.1-1.3-2.6-2.3c-2-4.2-6.4-5.3-9.4-5.9c1,0.8,2.2,1.3,3.2,2.1c1.6,1.2,3.2,2.5,4.8,3.9
		c1.4,1.2,2.8,2.7,4.2,3.8c0.9,0.7,2,0.8,2.8,1.5c1.3,0.9,3,1.5,2.9,4c-0.1,4.3,1.7,7.1,4.5,9.1c5.2,3.5,10.4,6.8,13.9,13
		c1.3,2.3,2.7,4.5,4.2,7.1c-0.6-0.1-0.8,0-0.9-0.1c-3.2-2.8-6.8-4.2-10.6-5.3c-2.9-0.8-4.9-2.6-5.8-6.3c-0.3-1.4-1.4-2.7-2.4-3.7
		c-2.3-2.2-4.8-4.2-7.2-6.3c-0.1,0.2-0.2,0.3-0.4,0.5c1.2,1.4,2.4,2.9,3.7,4.1c2.4,2.3,4.9,4.5,5.9,8.3c0.1,0.4,0.1,0.8,0,1.2
		c0,0.1-0.5,0.2-0.7,0.2c-1.1-0.4-2.3-0.7-3.4-1.3c-2.2-1.3-4.7-2.2-6.4-4.1c-3.4-4.1-6.2-8.8-9.3-13.2c-2.4-3.3-3.9-6.9-3.8-11.4
		c0-3.5-1.2-6.1-3.6-8c3.6,4.8,1.5,11.5,3.9,16.7c-1.1-0.3-1.9-0.9-2.8-1.2c-3.9-1.3-6.4-4.5-8.3-8.8c-1.1-2.5-2.5-4.9-3.8-7.3
		c-0.3,0.2-0.5,0.4-0.8,0.6c2.7,5.1,5.3,10.2,7.9,15.2c-1.4,0.1-2.9,0.3-4.4,0.5c0,0.2,0,0.4,0,0.7c4.3,0.5,8.7-0.3,12.6,3
		c3.5,2.9,8,8.5,8.7,11.3c-3.1-0.7-6-3.5-9.4-1c-0.5,0.3-1.1,0.3-1.7,0.3c-2.4-0.1-4.9-0.2-7.3-0.3c3.1,3.1,6.5,2.5,9.9,1.3
		c2.3-0.8,3.5-0.6,4.9,1.7c0.3,0.5,0.7,0.9,1,1.3c1.2,1.3,2.5,2.6,3.8,3.9c-2.8,0.8-4.8,0.7-6.8-1.1c-3.6-3.4-7.6-2.2-11.5-2.3
		c-1.5,0-3.1,0.4-4.6,0.7c1.4,0.7,2.8,1,4.1,1.1c2.9,0.2,5.8,0,8.5,0.6c2.2,0.5,4.2,2.4,6.4,3.2c3.3,1.3,5,4.7,7.4,7.3
		c-0.1,0.3-0.3,0.7-0.4,1c-2.9-1.6-5.7-3.2-8.6-4.8c-0.1,0.3-0.2,0.5-0.3,0.8c2.2,1.6,4.4,3.2,6.7,4.8c-0.9,0.4-1.9,0.8-2.9,1.2
		c0,0,0,0,0,0c2.2-0.1,4.5-0.5,6.7-0.2c1.4,0.2,2.8,1.5,4.1,2.6c-1.7,0-3.3,0.1-5,0c-1.7-0.2-3.4-0.7-5.1-1.1
		c-0.3-0.1-0.6-0.8-0.8-1.2c0,0-0.1,0-0.1,0c0,0,0,0,0.1,0c0,0,0,0,0,0c-1.8-0.5-3.7-0.7-5.4-1.5c-1.8-0.7-3.4-2.2-5.2-2.8
		c-4-1.4-8.3-1-11.7-4.8c-1.7-1.9-4.2-2.9-5.4-5.1c-2-4-5-5.5-8.1-7.2c-0.1,0-0.3,0.2-0.5,0.3c2.1,2.8,5.8,3.2,7.4,7.7
		c-1.9-0.6-3.5-0.9-4.9-1.7c-1.4-0.7-2.5-2.1-3.8-3c-1.4-0.9-2.9-1.4-4.3-2.4c-1.2-0.9-2.2-2.2-3.3-3.4c-0.1,0.2-0.2,0.4-0.3,0.6
		c0.8,1.1,1.6,2.3,2.7,3.8c-2.7-1.2-4.8-2.2-7-3.2c-0.1,0.2-0.2,0.5-0.3,0.7c0.6,0.6,1.2,1.4,1.9,1.9c2.9,1.9,6.2,2.9,8.7,5.8
		c0.4,0.5,1,0.9,1.5,1.3c-0.1,0.1-0.1,0.2-0.2,0.3c-2.3-0.3-4.5-0.6-6.8-1c0,0.4-0.1,0.8-0.1,1.2c2.7,0.2,5.5,0.4,8.2,0.5
		c1.1,0,2.4-0.8,3.2-0.3c0.9,0.6,1.3,2.3,1.9,3.5c0.2,0.5,0.4,1.1,0.6,1.6c-4.6-4.5-9.9-3.2-15.1-2.7c2.9,0.8,5.9,0.6,8.7,1.6
		c2.8,0.9,5.5,2.9,8.3,4.5c-0.3,0.5-0.5,0.8-0.7,0.9c-3.8,2.2-7.7,4.3-11.6,6.4c-0.6,0.3-1.7,0.1-2.2-0.4c-3.3-3.1-7.2-5.5-9.1-10.4
		c-0.2-0.6-0.8-1.1-1.2-1.6c-0.1,0.1-0.2,0.2-0.3,0.4c0.9,1.9,1.7,3.8,2.7,6.1c-3-0.4-5.7-0.9-8.9-1.4c0.8,0.9,1.1,1.5,1.4,1.6
		c2.1,0.6,4.3,1.2,6.4,1.5c3.4,0.5,5.9,2.7,7.9,6c-1.3,0.5-2.4,1-3.5,1.4c-4.7,1.7-9.4,3.4-12.9-2.9c-0.1-0.3-0.3-0.6-0.6-0.7
		c-0.4-0.1-0.9,0-1.4,0c1,1.2,1.8,2.3,2.7,3.4c-0.1,0.3-0.2,0.5-0.4,0.8c-6.4-4.8-7.9-2-4,0.5c3.4,2.1,7.3,3.3,11.3,2.7
		c0.6-0.1,1.2,0.1,2,0.1c-0.2,1-0.3,1.6-0.5,2.3c-0.7,3.5-1.7,4.5-4.7,4.4c-1.9-0.1-3.8-0.4-5.7-0.6c1.9,1.4,3.9,2.3,5.8,3.2
		c0.2,0.1,0.6-0.1,0.9-0.1c2.9-0.8,4.8-2.9,5.7-6.6c0.4-1.5,1.3-3.4,2.4-4.1c3.3-1.9,6.7-3.4,10.1-5c1.4-0.7,2.8-1.3,4.6-2.2
		c-1.4,5-4.2,7.5-7.5,9.3c0.9,0.1,1.7,0,2.4-0.4c2.9-1.3,4.5-4.1,6.1-7.1c1.1-2.1,2.4-3.9,4.7-4.2c1.5-0.2,2.9-0.7,4.4-1
		c2.2-0.3,4.5-0.8,6.7-0.7c1.8,0.1,3.5,1.1,5.4,1.8c-0.8,2.3-1.4,4.1-2.1,6.3c-2-0.4-3.9-1.2-5.9-1.2c-2,0-3.9,0.8-5.9,1.2
		c0.1,0.4,0.1,0.7,0.2,1.1c1.8-0.4,3.5-0.9,5.3-1.3c0,0.2,0,0.4,0.1,0.6c-2.2,1.5-4.3,3.1-6.5,4.6c0.8,0.3,1.5,0.2,2.1-0.1
		c2.3-1.2,4.5-2.5,6.8-3.5c0.9-0.4,2-0.3,3.5-0.4c-0.6,1.1-0.8,1.4-1,1.8c-3.2,7.1-10.5,10.4-16.5,7.4c-0.5-0.3-1.1-0.5-1.7-0.4
		c-2.7,0.5-5.4,1.1-8.5,1.7c3.7,2.3,7.4-2.3,11,1.1c-1.1,0.4-2.1,0.5-2.8,1.1c-1.9,1.5-3.6,3.3-5.5,4.9c-0.6,0.5-1.6,1.4-2.1,1.1
		c-3-1.7-5.7-0.2-8.4,0.9c0,0.2,0,0.4,0,0.6c2.6-0.3,5.2-0.6,7.8-0.9c0.1,0.3,0.2,0.5,0.3,0.8c-1.4,2.1-3.1,3.9-5.5,4.8
		c0.7,0.4,1.5,0.7,2,0.3c2.1-1.8,4.3-3.5,6.1-5.7c1.9-2.2,3.8-4.5,6.4-5.3c3.3-1,6.7-1.9,9.9-2.9c-0.9,2.4-2.1,4.7-2.7,7.3
		c-0.6,2.5-2.1,3.8-3.6,5.1c-1.7,1.5-3.5,2.7-5.2,4c0.8,0.1,1.5-0.2,2.1-0.6c3.9-2.3,7.2-5.1,8.7-10.6c0.8-3,2.2-5.7,4.8-7.2
		c1.5-0.9,3-2.2,3.9-3.9c1.5-3.1,2.6-6.5,3.7-9.8c0.5-1.5,0.9-2.4,2.5-1.4c1.5,1,3.1,1.5,4.7,2.2c1.3,0.6,2.7,1.1,4.4,1.8
		c-2.3,2.1-4.1,3.8-6,5.6c0.1,0.2,0.2,0.5,0.3,0.7c1-0.7,1.9-1.4,2.9-2.1c1.9-1.2,3.7-3.3,5.6-3.4c4.8-0.2,9.6,0.5,14.4,0.8
		c0.2,0,0.4,0.1,0.5,0.2c0,0.2,0,0.3,0,0.5c-3.1,0.9-6.1,1.8-9.2,2.7c0,0.2,0.1,0.5,0.1,0.7c0.4,0.1,0.9,0.3,1.3,0.2
		c2.1-0.3,4.2-0.6,6.3-1c0.5-0.1,1-0.4,1.4-0.8c3.1-3,6.9-2.9,10.5-4c0.2-0.1,0.5,0.1,1.4,0.4c-2.4,1.7-4.3,3.1-6.2,4.4
		c-3.1,2.1-6.5,2.8-10,3.4c-2,0.3-4,0.4-6,0.5c-1.4,0.1-2.8-0.1-4.1,0.2c-1.9,0.4-3.7,1.2-5.5,1.7c0.1,0.1,0.4,0.6,0.7,1.3
		c-1.3,1.3-2.4,2.7-3.8,3.6c-1.5,0.9-3.2,1.3-4.8,1.9c-4,1.5-6.4,5.5-9.2,8.7c1.2-0.6,2.2-1.5,3.3-2.4c2-1.5,3.9-3.8,6-4.4
		c3.7-0.9,6.6-3.2,9.3-6.2c2-2.2,4.4-3.8,7.6-2.6c-0.7,1.2-1.6,2-1.9,3c-0.7,3-1.1,6-1.6,9c-0.1,0.8-0.4,1.7-0.9,2.1
		c-1.3,1-2.9,1.5-4,2.7c-1.8,1.8-3.6,2.6-5.9,2.3c-0.6-0.1-1.2,0.3-2.2,0.6c4.3,1.3,7.6-0.2,10.5-3.4c0.3-0.3,0.8-0.7,1.1-0.6
		c0.4,0.1,1,0.9,0.9,1.1c-0.4,1.4-0.8,3-1.6,4c-3.2,4.3-6.4,8.8-11.9,7.1c-0.2-0.1-0.5,0-0.8,0.1c-3,1.7-5.9,3.4-8.9,5.1
		c0.1,0.2,0.2,0.5,0.2,0.7c3.7-0.3,6.6-4.9,10.7-3.8c-1.1,2-2,3.9-3,5.7c-0.8,1.5-1.6,3.1-2.8,4.3c-1.8,1.8-3.9,3.1-5.7,4.8
		c-1.1,1-2.1,2.3-3.2,3.4c0.1,0.1,0.2,0.3,0.3,0.4c1.5-1.1,3-2.1,4.5-3.3c2.6-2.1,6-3.2,7.4-7c1.8-4.9,5-7.8,8.6-10.2
		c0.8-0.5,1.5-1.3,2.2-2c0.2,0.2,0.4,0.4,0.6,0.6c-5.2,4.4-7.8,10.3-7.3,17.9c0.5-1.5,1.3-3.1,1.4-4.7c0.1-4.8,2.5-7.7,5.1-10.6
		c0.9-1,1.9-2,2.4-3.3c2.2-5.6,4-11.4,4.5-17.8c0.2-3.3,2.4-5.9,4.5-6.3c3.8-0.7,7.6-1.6,11.4-2.3c0.4-0.1,1.1,0.5,1.1,0.8
		c0.2,1.5-2.1,6.1-3.1,6.7c-2.1,1.4-4.1,2.9-6.2,4.3c0.1,0.3,0.2,0.6,0.3,0.9c1-0.5,2.1-1,3-1.7c1-0.7,1.8-1.7,2.7-2.5
		c0.1,0.2,0.3,0.4,0.4,0.6c-0.4,2.5-2.1,4-3.6,5.3c-3.4,3-6.2,6.6-7.7,11.4c-0.3,0.9,0.1,2.2,0.1,3.3c0.2,0,0.5,0,0.7,0
		c0.1-4.3,2.2-7.3,4.5-10c2.2-2.5,4.7-4.6,6.8-7.1c2-2.4,3.8-5.1,5.8-7.6c0.6-0.7,1.3-1.2,2-1.8c-1.3,6.2-2.7,12-3.9,17.9
		c-0.4,2.1-0.6,4.3-2.4,5.3c-0.7,0.4-1.5,0.5-2.2,0.9c-4.1,2.3-5.8,7.4-8.4,11.3c0,0,0.2,0.2,0.3,0.3c3.7-3.7,5.7-10,11.5-11.1
		c-0.5,2.4-0.9,4.8-1.5,7.1c-1.1,4.3-3.9,6.9-6.7,9.4c-0.8,0.7-1.8,2-2.3,1.7c-4.3-1.6-7.8,1.3-11.8,2.8c2.2,1.4,3.6-0.9,5.3-1.1
		c1.8-0.2,3.6-0.5,5.3-0.8c0.1,0.4,0.2,0.8,0.3,1.2c-2.6,2.3-5.1,4.7-7.8,6.7c-1.3,0.9-3,1.7-4.4,1.4c-3.2-0.7-5.6,0.9-8.1,2.8
		c-0.4,0.3-0.6,1-0.9,1.4c3.8-2,11.7-4.2,14.4-3.7c-0.8,2.5-1.9,5-2.5,7.6c-1.2,5.4-3.4,9.7-7.3,12.7c-3,2.3-5.9,4.8-8.8,7.3
		c0.1,0.3,0.2,0.5,0.4,0.8c2.7-2,5.6-3.8,8.2-6c2.6-2.2,4.9-4.9,7.9-7.8c-0.4,2.3-0.7,4.1-1,5.8c-0.3,1.7-0.6,3.3-1,5
		c0.8-0.8,1.2-1.8,1.6-2.8c0.8-2.3,1.7-4.8,1.1-7.3c-0.4-1.6-0.3-2.8,0-4.4c1.4-8.2,5.6-14,10.5-19.3c1.5-1.6,3.2-3,4.7-4.5
		c1.1,8.2-2.9,13.4-6.5,19.1c2.3-2.6,4.5-5.3,6.2-8.4c1-1.7,1.5-4.1,1.6-6.3c0.1-3.5,0.5-6.5,2.4-9.3c2.7-4.2,3.5-9.4,4.4-14.5
		c0.6-3.2,1.2-6.4,1.9-9.6c0.2,0.1,0.4,0.1,0.6,0.2c-0.1,1.1-0.3,2.1-0.4,3.2c-0.2,2.9-0.6,5.8-0.4,8.6c0.5,5.3,1,10.5,0.3,15.8
		c-1,7.3-3.7,12.9-9.5,15.9c-3.2,1.6-5.7,5.8-6.1,9.7c0.5-0.8,1-1.4,1.3-2c1.4-2.9,3.5-4.9,5.8-6.5c1.4-0.9,2.9-1.8,4.2-2.9
		c0.9-0.8,1.6-2.1,2.6-3.5c0,0.8,0.1,1.1,0,1.3c-1.9,5.3-3.7,10.6-5.6,15.9c-0.2,0.5-0.4,1.2-0.7,1.4c-4,1.9-5.4,6.7-8,10.3
		c3.1-2,4.2-7,7.8-8.2C140.8,369.4,140.1,377.9,141.5,386.4z M132.3,239.8c-0.9-0.8-1.5-3-1.4-4.4c0.3-3.9,0.5-7.7,3-11
		c2.4-3.1,3.1-7.4,2.7-12.1c1,1.6,1.8,3,2.7,4.2c1.5,2,3.4,3.6,4.6,5.8c1.2,2.2,1.8,4.8,2.7,7.3c0.4,1.1,0.7,2.2,1.2,3.3
		c1.6,3.5,1.4,7.4,1.6,11.2c-3.9,0.3-7.5-4.2-7.4-8.6c0.1-4.8-0.5-8.7-3.8-11.9c1.8,4.3,2.9,8.3,2.4,12.9c-1.2-0.9-2.3-1.7-3.4-2.6
		c-0.1,0.1-0.2,0.2-0.3,0.4c0.4,0.6,0.8,1.2,1.3,1.7c1.3,1.5,2.5,2.9,2.6,5.5c0.1,1.9,1.1,3.6,1.9,6.2 M142.3,241.7
		c1.4,1.2,2.8,2.6,4.3,3.8c0.6,0.5,1.5,0.4,2.2,0.7c0.5,0.2,1.1,0.6,1.2,1.1c0.8,3.2,1.4,6.5,2.2,10
		C148.4,252.6,143.7,248.7,142.3,241.7z M116.7,252.2c0.1-0.2,0.2-0.4,0.4-0.5c2.8,2.1,5.6,4.2,8.5,6.3
		C123.9,259.5,119.6,256.6,116.7,252.2z M78.1,254.5c0.1-0.2,0.1-0.4,0.2-0.7c1.5,0.6,3,1.1,4.8,1.8
		C81.7,256.9,81.7,256.9,78.1,254.5z M90.1,265.5c-1.3-1.7-2.1-4.1-3.4-6.7c4.8,0.2,7.6,3.8,11,6.4
		C95.1,264.8,92.5,268.5,90.1,265.5z M148.2,269.4c-3.9,4.2-9.2,2.7-11-3.5C141.4,265.3,145,266,148.2,269.4z M139,263.5
		c-2.6,2-3.1,1.8-5.9-2.3C135.3,262,137.1,262.7,139,263.5z M125.2,267.3c-1.4-1.8-2.7-3.7-4.4-6c0.9-0.2,1.7-0.4,2.5-0.4
		c3.4,0,6.9-0.1,9.6,3.3c0.3,0.4,0.4,1.9,0.3,1.9c-2,1.1-3.9,2.2-6,2.9C126.7,269.1,125.8,268,125.2,267.3z M131.7,268.4
		c3.2-1.9,3.2-1.9,5.4,2.4C135.4,270,133.6,269.2,131.7,268.4z M129.2,271.3c0.1-0.3,0.1-0.6,0.2-0.9c3.1-0.7,5.6,2.2,8.6,2.5
		c-0.1,0.3-0.1,0.7-0.2,1C135,273.1,132.1,272.2,129.2,271.3z M143.9,292.4c0.2-0.8,0.5-2,0.8-3.2c0.5-2.2,1.5-3.7,3.4-4.4
		c1.2-0.5,2.2-1.6,3.3-2.4c0.4-0.3,0.8-0.5,1.2-0.7c0,0.2,0.1,0.3,0.1,0.5c-0.7,1.6-1.5,3.1-2.2,4.6c-0.2,0.5-0.6,0.9-1,1.2
		C147.7,289.5,145.8,290.9,143.9,292.4z"/>
	<g>
		<path class="st2" d="M335.5,207.1c-0.8,4.4-1,9.1-1.1,13.6c-0.1,3.3,0.3,6.7,0.3,10.1c0.1,6.2-1.3,12.1-3.3,17.7
			c-0.7,1.9-1.9,6.1-3.6,6.4c-1.3,0.2-2.6,1.1-3.8,1.1c-3.3,0.2-6.5-0.2-9.8,0l0,27.9c0.2,0,0.4,0.1,0.5,0.1
			c4.4,0.5,8.8,0.5,13.1,0.5c1.5,0,2.2,4.4,2.8,5.8c2.7,7.1,5,14.2,4.6,22.4c-0.3,5.9-0.3,11.7,0.1,17.7c0.5,6.3,3-10.8,3-15.5
			c0-0.6,0.8-1.4,0.9-1.1c0.1,0.3-3.1-14.5,0.3-18.4c4.1-4.6,20.6,6.5,20.1,13.5c-0.6,10.1,2.6,2.1,2.7-0.5
			c0.1-4.4-4.2-8.8-7.1-10.8c-5.3-3.7-10.7-7.1-14.4-13.5c-1.4-2.4-2.8-4.7-4.3-7.3c0.6,0.1,0.8,0,0.9,0.1c3.3,2.9,7.1,4.4,10.9,5.5
			c3,0.9,8.2,8,9.2,9c2.4,2.3,4.2,5.7,6.7,7.9c0.1-0.2,0.2-0.3,0.4-0.5c-1.3-1.4-5.4-11.2-6.8-12.5c-2.5-2.4-14.4-11.1-14.3-13.3
			c0.3-5,15.9-4.2,15-5c1.7,0,13.5,2.1,13.5,2.1c1.9,0.5,7.2,5.5,9.1,6.1c4.1,1.4-1.7-5.2-3.3-6.2c-1.5-1-3.2-1.6-4.8-2.3
			c-1.4-0.6-5.5-2.8-7.5-2.7c-5,0.2-22.5-0.4-26.2,0.7c-0.3,0.1-0.6-0.2-1.5-0.4c2.5-1.8,4.4-3.2,6.4-4.6c3.2-2.2,6.8-2.9,10.3-3.5
			c2.1-0.3,8.4-4.5,8.6-5.6c0.7-3.1-0.4-12-0.8-5.4c-0.2,3.4-2.4,6.1-4.7,6.5c-3.9,0.7-7.8,1.6-11.8,2.4c-0.4,0.1-8.9,4.3-7.3-2.8
			c1.4-6.4,2.8-12.4,4-18.6c0.4-2.2,3.8-21.5,1.9-18.5c-2.8,4.3-3.6,9.8-4.5,15.1c-0.6,3.3-1.3,6.6-1.9,9.9
			c-0.2-0.1-0.4-0.1-0.6-0.2c0.1-1.1,0.3-2.2,0.4-3.4c0.2-3,0.7-6,0.4-9c-0.5-5.5-1.1-10.9-0.3-16.4c1-7.6,1.6-12.2,1.7-12.4
			C341.6,193,336.4,202,335.5,207.1z"/>
	</g>
	<g>
		<path class="st2" d="M337.6,180.3c1.6,2.7,3.2,5.4,4.7,8.2c3.2,5.9,1.8,13.2-3,16.8c-0.4,0.3-0.8,0.8-1.2,1.2
			c-5.9-4-8.5-8.9-7.9-14.7C330.7,186.6,334.1,181.3,337.6,180.3C337.6,180.3,337.6,180.3,337.6,180.3z"/>
	</g>
	<g>
		<path class="st2" d="M359,197.4c0.1,4.1,0.3,8.2,0.2,12.3c0,8.7-6.1,16.3-13.8,17.3c-0.7,0.1-1.4,0.4-2.1,0.6
			c-4.3-8.2-4.3-15.4,0-21.7C347.2,200.3,354.4,196.4,359,197.4C359,197.5,359,197.4,359,197.4z"/>
	</g>
	<g>
		<path class="st2" d="M375.6,219.2c0.1,4.6,0.3,9.3,0.3,13.9c0,9.9-6.9,18.4-15.7,19.6c-0.8,0.1-1.6,0.5-2.3,0.7
			c-4.9-9.2-4.8-17.5,0-24.6C362.3,222.4,370.4,218.1,375.6,219.2C375.7,219.2,375.6,219.2,375.6,219.2z"/>
	</g>
	<g>
		<path class="st2" d="M402.1,238.9c-1.9,3.7-3.8,7.5-5.8,11.2c-4.3,7.9-13.4,11.7-20.9,8.8c-0.7-0.3-1.4-0.3-2.1-0.5
			c0.1-9.4,3.7-16,10.7-19.5C390.1,235.7,398.4,235.7,402.1,238.9C402.1,238.9,402.1,238.9,402.1,238.9z"/>
	</g>
	<g>
		<path class="st2" d="M346.6,151.9c1.2,3.3,2.5,6.5,3.6,9.8c2.4,7.1-0.4,14.8-6.3,17.8c-0.5,0.3-1,0.7-1.5,1.1
			c-5.7-5.4-7.8-11.3-6-17.5C337.9,157.6,342.6,152.4,346.6,151.9C346.6,152,346.6,151.9,346.6,151.9z"/>
	</g>
	<g>
		<path class="st2" d="M365.2,165.2c0.7,3.5,1.5,6.9,2.1,10.4c1.4,7.5-2.6,14.9-9.1,17c-0.6,0.2-1.1,0.6-1.7,0.8
			c-4.9-6.3-6.1-12.5-3.4-18.5C355.6,169.5,361.1,165.1,365.2,165.2C365.2,165.3,365.2,165.2,365.2,165.2z"/>
	</g>
	<g>
		<path class="st2" d="M421,216.4c-1.6,3.3-3.2,6.6-4.8,9.8c-3.6,6.9-11.5,10.4-18.1,8c-0.6-0.2-1.3-0.3-1.9-0.4
			c-0.1-8.2,3-14,8.9-17.2C410.5,213.9,417.8,213.8,421,216.4C421,216.5,421,216.4,421,216.4z"/>
	</g>
	<g>
		<path class="st2" d="M407.7,200.9c-1.8,3.7-3.6,7.5-5.5,11.1c-4.1,7.8-13,11.8-20.5,9.1c-0.7-0.2-1.4-0.3-2.1-0.4
			c-0.1-9.3,3.3-15.9,10.1-19.5C395.7,198,404,197.9,407.7,200.9C407.7,201,407.7,200.9,407.7,200.9z"/>
	</g>
	<g>
		<path class="st2" d="M387.3,181.7c-0.6,4.1-1.1,8.2-1.8,12.3c-1.5,8.7-8.8,15.2-16.7,15c-0.7,0-1.4,0.2-2.2,0.3
			c-2.9-8.9-1.7-16.1,3.7-21.7C375.1,182.6,382.9,179.9,387.3,181.7C387.4,181.7,387.3,181.7,387.3,181.7z"/>
	</g>
	<g>
		<path class="st2" d="M429.6,240.2c-2.6,3.6-5.1,7.3-7.7,10.9c-5.6,7.6-13.6,9.4-18.4,4.2c-0.4-0.5-1-0.7-1.5-1.1
			c2.9-10.5,7.5-16.8,13.8-18.9C421.5,233.5,427.8,235.8,429.6,240.2C429.6,240.3,429.6,240.2,429.6,240.2z"/>
	</g>
	<g>
		<path class="st2" d="M404.4,275.9c-4,1.4-7.9,3-12,4.3c-8.5,2.9-17-1.2-19.4-9.2c-0.2-0.7-0.6-1.4-1-2c7.2-7.3,14.3-9.7,21.2-7.1
			C399.5,264.2,404.6,270.6,404.4,275.9C404.4,276,404.4,275.9,404.4,275.9z"/>
	</g>
	<g>
		<path class="st2" d="M389.2,302.4c-4.7,0.4-9.3,0.9-14,1.1c-9.9,0.6-17.8-6.2-18-15.4c0-0.8-0.3-1.6-0.4-2.4
			c9.8-5.7,18.1-6.2,24.7-1.4C387.4,288.5,390.9,296.9,389.2,302.4C389.2,302.5,389.2,302.4,389.2,302.4z"/>
	</g>
	<g>
		<path class="st2" d="M425.8,303.3c-4.2-0.3-8.5-0.6-12.7-1c-9-0.9-15-8.1-13.9-16.4c0.1-0.7,0-1.5,0-2.2c9.6-3.7,17-2.9,22.3,2.3
			C426.2,290.5,428.1,298.5,425.8,303.3C425.7,303.3,425.8,303.3,425.8,303.3z"/>
	</g>
	<g>
		<path class="st2" d="M446.4,270.3c-4.2,2.1-8.4,4.3-12.6,6.4c-9,4.3-17.7,1.3-19.9-6.8c-0.2-0.7-0.6-1.3-0.9-2
			c7.8-8.8,15.3-12.4,22.4-10.7C441.6,258.6,446.7,264.7,446.4,270.3C446.3,270.4,446.4,270.3,446.4,270.3z"/>
	</g>
	<g>
		<path class="st2" d="M408.4,334.1c-3.7-0.7-7.4-1.3-11-2.2c-7.8-1.8-12.4-10.7-10.7-20.4c0.2-0.9,0.1-1.8,0.2-2.6
			c8.7-3.6,15.2-2.1,19.3,4.4C409.8,319.2,410.8,328.7,408.4,334.1C408.3,334.1,408.4,334.1,408.4,334.1z"/>
	</g>
	<g>
		<path class="st2" d="M346.2,344.8c-3.4-4-6.8-7.9-10-12c-7-8.7-7.1-21.4-0.5-29.1c0.6-0.7,1-1.6,1.5-2.4
			c10.6,4.4,16.4,11.7,17.3,21.6C355.2,331.8,351.4,341.8,346.2,344.8C346.1,344.7,346.2,344.8,346.2,344.8z"/>
	</g>
	<g>
		<path class="st2" d="M350.7,385.4c-2.7-3.1-5.4-6.2-8-9.4c-5.6-6.8-5.4-17.1,0.4-23.4c0.5-0.6,0.9-1.3,1.3-1.9
			c8.7,3.3,13.3,9,13.8,17C358.5,374.7,355.1,382.9,350.7,385.4C350.6,385.4,350.7,385.4,350.7,385.4z"/>
	</g>
	<g>
		<path class="st2" d="M379.6,367.2c-4-2.4-8-4.7-12-7.2c-8.4-5.3-11.9-16.3-8.1-25.3c0.3-0.8,0.5-1.7,0.7-2.6
			c10.5,0.3,17.6,4.8,21,13.2C384.1,352.8,383.4,362.8,379.6,367.2C379.5,367.2,379.6,367.2,379.6,367.2z"/>
	</g>
	<g>
		<path class="st2" d="M383.5,333.4c-4-1-7.9-2-11.9-3.1c-8.4-2.4-13.6-11.8-12.1-21.4c0.1-0.8,0.1-1.8,0.1-2.6
			c9.2-2.9,16.2-0.8,20.9,6C384.6,318.5,385.9,328.1,383.5,333.4C383.4,333.4,383.5,333.4,383.5,333.4z"/>
	</g>
	<g>
		<polygon class="st2" points="170.2,255 327.9,255 332,284.5 170.2,284.3 		"/>
	</g>
</g>
<g>
	<path class="st5" d="M166.7,202.8c-2.6-0.3-4.9,1.7-4.9,4.4l2,26.2c2.1,15.4,6.8,15.4,80.1,15.4c73.9,0,77.6-0.2,80-15.1l2.3-26.3
		c0-2.4-2.1-4.3-4.5-4c-13,1.5-51.5,5.9-74.6,5.9C223.8,209.2,181.1,204.5,166.7,202.8z"/>
</g>
<g>
	<g>
		<polygon class="st6" points="257.3,228.1 246.3,218.4 235.3,228.1 246.3,237.7 		"/>
		<line class="st6" x1="235.3" y1="228.1" x2="253.8" y2="211.8"/>
		<line class="st6" x1="257.3" y1="228.1" x2="239.2" y2="212.2"/>
		<line class="st6" x1="257.2" y1="228.1" x2="238.7" y2="244.3"/>
		<line class="st6" x1="235.3" y1="228.1" x2="253.3" y2="244"/>
	</g>
	<polyline class="st6" points="256.9,214.8 252.5,218.7 259.3,224.7 	"/>
	<polyline class="st6" points="256.9,241.6 252.5,237.8 259.3,231.7 	"/>
	<polyline class="st6" points="236,214.8 240.4,218.7 233.5,224.7 	"/>
	<polyline class="st6" points="236,241.6 240.4,237.8 233.5,231.7 	"/>
	<g>
		<polyline class="st6" points="290.7,237.9 301.7,228.3 290.7,218.6 		"/>
		<line class="st6" x1="301.7" y1="228.3" x2="290.7" y2="237.9"/>
		<line class="st6" x1="290.7" y1="237.9" x2="297.8" y2="244.2"/>
		<line class="st6" x1="290.7" y1="218.6" x2="298.3" y2="212"/>
		<line class="st6" x1="301.7" y1="228.3" x2="290.7" y2="218.6"/>
	</g>
	<polyline class="st6" points="301,241.6 296.6,237.7 303.4,231.7 	"/>
	<polyline class="st6" points="301,214.7 296.6,218.6 303.4,224.6 	"/>
	<g>
		<polyline class="st6" points="200.1,218.3 189.1,227.9 200.1,237.6 		"/>
		<line class="st6" x1="189.1" y1="227.9" x2="200.1" y2="218.3"/>
		<line class="st6" x1="200.1" y1="218.3" x2="193" y2="212"/>
		<line class="st6" x1="200.1" y1="237.6" x2="192.5" y2="244.2"/>
		<line class="st6" x1="189.1" y1="227.9" x2="200.1" y2="237.6"/>
	</g>
	<polyline class="st6" points="189.8,214.6 194.2,218.5 187.4,224.5 	"/>
	<polyline class="st6" points="189.8,241.5 194.2,237.6 187.4,231.6 	"/>
	<g>
		<rect x="281.6" y="223.4" class="st6" width="5.9" height="10.1"/>
		<rect x="269.8" y="218.2" class="st6" width="11.5" height="5.2"/>
		<rect x="269.8" y="233.5" class="st6" width="11.5" height="5.2"/>
		<rect x="263.9" y="223.4" class="st6" width="5.9" height="10.1"/>
	</g>
	<polygon class="st6" points="275.5,225.4 272.1,228.5 275.5,231.5 279,228.5 	"/>
	<g>
		<rect x="222.8" y="224.6" class="st6" width="5.9" height="10.1"/>
		<rect x="211" y="219.4" class="st6" width="11.5" height="5.2"/>
		<rect x="211" y="234.7" class="st6" width="11.5" height="5.2"/>
		<rect x="205.1" y="224.6" class="st6" width="5.9" height="10.1"/>
	</g>
	<polygon class="st6" points="216.7,226.6 213.3,229.7 216.7,232.7 220.2,229.7 	"/>
</g>
<path class="st0" d="M223.5,159.8c0,0,2.9,16.1,1.9,27c-0.5,5.3-1.1,10.4-2,14.5c1.4,0.1,2.9,0.2,4.3,0.3
	C229.2,191.9,230.1,176.1,223.5,159.8z"/>
<path class="st0" d="M268,159.8c-6.6,16.3-5.8,32-4.2,41.6c1.4-0.1,2.8-0.2,4.3-0.3c-0.9-4.1-1.7-9-2-14.4
	C265.3,175.9,268,159.8,268,159.8z"/>
<g>
	<path class="st1" d="M225.4,186.8c1-10.9-1.9-27-1.9-27c6.6,16.3,5.7,32.1,4.1,41.7c6.2,0.3,11.9,0.6,16.7,0.6
		c6,0,12.6-0.2,19.5-0.6c-1.6-9.6-2.4-25.4,4.2-41.6c0,0-2.7,16-1.9,27c0.4,5.4,1.1,10.3,2,14.4c6.7-0.4,13.6-1,20.1-1.6
		c3.2-5.2,5.6-12.1,5.6-20.7c0-11.6-1.3-18.5-11.4-32.5c-1-1.3-2.6-2.2-4.2-2c-5,0.4-10.2-0.7-14.6-2.1c-1.4-0.5-3.3-2.2-4.2-1.1
		c-1,1.1,0.3,3,1.1,4.6c0.4,0.9,1,2.2,0.2,3c-0.9,0.9-2.3,0.2-3.5-0.2c-3.7-1.5-6.4-4.3-8.5-7.6c-1-1.6-1.6-1.4-2.6-0.1
		c-1.8,2.6-3.8,4.9-6.3,6.8c-1.8,1.4-3.7,2.6-6.3,3c0.6-2.7,1.3-5.1,1.8-7.6c0.4-1.9-0.1-2.6-2.1-2c-6,1.7-11.7,3.6-21.7,3.5
		c-1.6,0-3.2,0.7-4.2,2c-9.2,12.5-10.3,25.7-10.3,33.1c0,8.8,2.5,15.3,5.7,19.9c6.9,0.6,14,1.2,20.7,1.6
		C224.3,197.2,224.9,192.1,225.4,186.8z"/>
</g>
<g>
	<path class="st5" d="M288.2,199.6c-6.5,0.6-13.4,1.2-20.1,1.6c-1.4,0.1-2.8,0.2-4.3,0.3c-6.9,0.4-13.5,0.6-19.5,0.6
		c-4.8,0-10.5-0.2-16.7-0.6c-1.4-0.1-2.8-0.2-4.3-0.3c-6.7-0.4-13.8-1-20.7-1.6c-21.9-1.9-41.8-4.3-41.8-4.3l0.6,3.5
		c0.1,0.8,0.7,1.4,1.5,1.5c5.1,0.7,24.4,3.3,45.1,5.2c4.5,0.4,9.1,0.8,13.6,1.1c1.6,0.1,3.2,0.2,4.8,0.3c6.3,0.4,12.3,0.6,17.8,0.6
		c6.5,0,13.5-0.3,20.6-0.7c1.5-0.1,3-0.2,4.5-0.3c4.8-0.3,9.5-0.7,14.1-1.1c19.1-1.8,35.9-4.1,41-4.8c0.9-0.1,1.6-0.9,1.6-1.8v-3.5
		C326.1,195.4,308.8,197.7,288.2,199.6z"/>
</g>
<g>
	<g>
		<path class="st0" d="M229.7,274.5c-4,0-4.2-10.5-4.2-11.7c0-1.2,0.1-11.7,4.2-11.7c4,0,4.2,10.5,4.2,11.7
			C233.8,263.9,233.7,274.5,229.7,274.5z"/>
		<path class="st1" d="M229.7,252.3c1.6,0,2.9,4.7,2.9,10.4c0,5.8-1.3,10.4-2.9,10.4s-2.9-4.7-2.9-10.4
			C226.8,257,228.1,252.3,229.7,252.3 M229.7,249.7c-4.9,0-5.4,9.1-5.4,13s0.5,13,5.4,13s5.4-9.1,5.4-13S234.6,249.7,229.7,249.7
			L229.7,249.7z"/>
	</g>
	<g>
		<path class="st0" d="M235.4,274.5c-4,0-4.2-10.5-4.2-11.7c0-1.2,0.1-11.7,4.2-11.7s4.2,10.5,4.2,11.7
			C239.5,263.9,239.4,274.5,235.4,274.5z"/>
		<path class="st1" d="M235.4,252.3c1.6,0,2.9,4.7,2.9,10.4c0,5.8-1.3,10.4-2.9,10.4s-2.9-4.7-2.9-10.4
			C232.5,257,233.8,252.3,235.4,252.3 M235.4,249.7c-4.9,0-5.4,9.1-5.4,13s0.5,13,5.4,13s5.4-9.1,5.4-13S240.3,249.7,235.4,249.7
			L235.4,249.7z"/>
	</g>
	<g>
		<path class="st0" d="M241.1,274.5c-4,0-4.2-10.5-4.2-11.7c0-1.2,0.1-11.7,4.2-11.7c4,0,4.2,10.5,4.2,11.7
			C245.2,263.9,245.1,274.5,241.1,274.5z"/>
		<path class="st1" d="M241.1,252.3c1.6,0,2.9,4.7,2.9,10.4c0,5.8-1.3,10.4-2.9,10.4c-1.6,0-2.9-4.7-2.9-10.4
			C238.2,257,239.5,252.3,241.1,252.3 M241.1,249.7c-4.9,0-5.4,9.1-5.4,13s0.5,13,5.4,13c4.9,0,5.4-9.1,5.4-13
			S246,249.7,241.1,249.7L241.1,249.7z"/>
	</g>
</g>
<g>
	<g>
		<path class="st0" d="M251.8,274.5c-4,0-4.2-10.5-4.2-11.7c0-1.2,0.1-11.7,4.2-11.7s4.2,10.5,4.2,11.7
			C255.9,263.9,255.8,274.5,251.8,274.5z"/>
		<path class="st1" d="M251.8,252.3c1.6,0,2.9,4.7,2.9,10.4c0,5.8-1.3,10.4-2.9,10.4s-2.9-4.7-2.9-10.4
			C248.9,257,250.2,252.3,251.8,252.3 M251.8,249.7c-4.9,0-5.4,9.1-5.4,13s0.5,13,5.4,13s5.4-9.1,5.4-13S256.7,249.7,251.8,249.7
			L251.8,249.7z"/>
	</g>
	<g>
		<path class="st0" d="M257.5,274.5c-4,0-4.2-10.5-4.2-11.7c0-1.2,0.1-11.7,4.2-11.7s4.2,10.5,4.2,11.7
			C261.6,263.9,261.5,274.5,257.5,274.5z"/>
		<path class="st1" d="M257.5,252.3c1.6,0,2.9,4.7,2.9,10.4c0,5.8-1.3,10.4-2.9,10.4c-1.6,0-2.9-4.7-2.9-10.4
			C254.6,257,255.9,252.3,257.5,252.3 M257.5,249.7c-4.9,0-5.4,9.1-5.4,13s0.5,13,5.4,13s5.4-9.1,5.4-13S262.4,249.7,257.5,249.7
			L257.5,249.7z"/>
	</g>
	<g>
		<path class="st0" d="M263.2,274.5c-4,0-4.2-10.5-4.2-11.7c0-1.2,0.1-11.7,4.2-11.7s4.2,10.5,4.2,11.7
			C267.3,263.9,267.2,274.5,263.2,274.5z"/>
		<path class="st1" d="M263.2,252.3c1.6,0,2.9,4.7,2.9,10.4c0,5.8-1.3,10.4-2.9,10.4c-1.6,0-2.9-4.7-2.9-10.4
			C260.3,257,261.6,252.3,263.2,252.3 M263.2,249.7c-4.9,0-5.4,9.1-5.4,13s0.5,13,5.4,13c4.9,0,5.4-9.1,5.4-13
			S268.1,249.7,263.2,249.7L263.2,249.7z"/>
	</g>
</g>
</svg>
