<?xml version="1.0" encoding="utf-8"?>
<!-- Generator: Adobe Illustrator 20.1.0, SVG Export Plug-In . SVG Version: 6.00 Build 0)  -->
<svg version="1.1" id="Capa_1" xmlns="http://www.w3.org/2000/svg" xmlns:xlink="http://www.w3.org/1999/xlink" x="0px" y="0px"
	 viewBox="0 0 500 500" style="enable-background:new 0 0 500 500;" xml:space="preserve">
<style type="text/css">
	.st0{fill:#EEEDEB;}
	.st1{fill:#009045;}
</style>
<circle class="st0" cx="250.5" cy="249.8" r="249.8"/>
<g>
	<g>
		<path class="st1" d="M47.5,289.9c-1.5,2-4.6,0.6-4.1-1.8c1.9-8.7,8.4-21.6,28.7-33.3c34.7-19.9,42.3-26.7,51.8-49
			s25.9-27.9,25.9-27.9s13.2,7.6,21.1,25.9c8,18.3,19.5,6.8,25.5,4.4c6-2.4,29.9-0.4,35.1-19.9s31.9-72.6,54.2-72.6
			c22.3,0,13.6,19.5,35.9,40.3s23.9,31.1,32.7,57.4s21.5,44.7,45.1,67.8c23.5,23.1,54.5,46,51,63.5c-4.3,7.1-5.7-15.3-45.1-39.8
			c-41.5-21.5-61.7-35.2-69.3-40.4c-7.6-5.2-15.2-13.2-24.3-13.6c-9.2-0.4-12,0.4-12,0.4s1.1-3.9,10.9-20.3
			c7-11.8,7.6-32.5,8.3-57.6c0.5-18.1,11,21.4,11.5,62c0.2,16.8,19.9,28.7,26.7,31.5c6.8,2.8,5.6-6,1.2-13.6
			c-4.4-7.6-17.1-24.3-16.7-38.7c0.4-14.4,0-32.7-8-41.9c-8-9.2-21.1-18.7-27.1-28.7c-6-10-10.4-22.7-17.5-22.3
			c-7.2,0.4,0.8,31.5-5.2,40.3c-6,8.8-19.9,22.3-21.5,70.6c0.8,10-12.4,7.6-15.2,1.2s-16-30.3-21.9-28.7c-6,1.6-14.4,10-14,20.7
			c0.4,10.8-2,10.4-5.2,10.8c-3.2,0.4,0-21.5-7.6-20.7s-14.8,12-25.5,3.2c-10.8-8.8-12.8-33.5-21.1-27.9c-8.4,5.6-17.1,26.3-12,39.5
			s15.6,22.7,9.6,25.9s-34.7,13.6-34.7,19.1s2,6.4,13.2,5.2c4-3.6,4-4,9.6-4s5.2,4.4-4,17.5c-9.2,13.2-31.5,46.7-35.9,46.9
			c-4.4,0.2-6-2.6-1.2-10.6c4.8-8,13.2-22.7,11.2-32.3c-2-9.6-8.8-6.4-9.6,4s-0.8,16-3.2,16c-2.4,0-2-16-5.6-15.6
			c-3.6,0.4,0,23.9-4.8,24.3c-4.8,0.4-1.2-17.9-5.2-18.3s-0.8,23.5-6.8,24.3c-6,0.8-3.2-12-6.8-12s-14.8,7.2-10-2
			s11.6-29.9,27.1-29.9s21.1-9.2,23.5-17.1c2.4-8-14.8-8.8-19.5-6.4C82.9,267.6,58.8,274.6,47.5,289.9z"/>
	</g>
	<g>
		<path class="st1" d="M302.6,150.5c0,0,2.3,12.5,4.1,20.9c1.8,8.4,3.3,13.8,3.3,15.9s0,3.9,2.4,3.9s1.2-13.5,0-25.1
			c-1.2-11.7-6.4-20.3-9.8-19.4C299.2,147.5,302.6,150.5,302.6,150.5z"/>
	</g>
	<g>
		<path class="st1" d="M104.2,355.7c9,0.1,52.9,3.6,55.9,0c3-3.6,39.8-61.9,41.3-65.5s-8.4-16.4-11.1-16.7
			c-2.7-0.3-10.5,6.9-11.7,9.9s1.7,1.7,7.7,2.9s6.1,6.4,2.8,6.9c-3.3,0.6-34.1,0.3-34.1,0.3s-5.7,3.9-0.9,4.8
			c4.8,0.9,29-0.9,28.7,1.5c-0.3,2.4,2.7,6.5-19.1,6c-16.2-0.4-19.3,1-19.7,3.3c-0.4,2.5,2.4,4.2,15.9,3.9s12.9,0,12.9,2.4
			c0,0,2.2,3.6-12.2,3.6s-27.9-0.8-28.8,3.5c-0.9,4.2-0.3,4.5,13.2,4.7c13.5,0.2,16.7,0.5,16.5,2.7c-0.2,2.3-32.6,2.2-38.1,3.2
			c-5.6,1-6.9,3-12.5,11.1C105.3,352.1,100.4,355.7,104.2,355.7z"/>
	</g>
	<g>
		<path class="st1" d="M183.6,374.7c0,0,39,1.6,40.8,0c1.8-1.6,5.6-31.5,7-49.3c1.4-17.8,4.7-42.6,3.4-45.9
			c-1.4-3.4-4.7-7.7-7.9-8.1c-3.2-0.5-10.1,7.4-10.1,10.4c0,2.9,5.9,1.6,9.5,1.6c3.6,0,4.3,1.1,4.1,3.8c-0.2,2.7,0,4.1-4.7,3.8
			c-4.7-0.2-12.2-0.5-11.9,1.6c0.2,2,0.2,2.9,7.2,3.2s7,4.7,6.1,9c-0.9,4.3-2.5,4.7-3.8,3.6c-1.4-1.1-4.1-2-8.6-2
			c-4.5,0-5.5,1.4-5.1,2.7c0.4,1.4,5.4,2.7,8.7,3.6c3.4,0.9,7.4,1.4,6.8,6.5c-0.7,5.2-2,8.3-3.6,7c-1.6-1.4,3.4-6.5-3.8-6.5
			c-7.2,0-10.8,0.2-14.4,2.7c-3.8,2.7-11.3,11.7-5,11.9c6.3,0.2,20.9-1.4,21.4,2c0.5,3.4,2.3,21.9,0.7,21.1
			c-1.6-0.8-10.4-13-15.8-13.4c-5.4-0.5-21.3,10.6-21.5,16.2C182.5,365.7,181.3,374.6,183.6,374.7z"/>
	</g>
	<g>
		<path class="st1" d="M265.8,279.2c-0.2-1.5-6.9-9-11.1-8.7c-4.2,0.3-11,3.5-7.8,13.1c3.2,9.6,23.7,79.6,25.8,85.1
			c2.1,5.6,5.1,6.3,19.1,5.9c14-0.5,26.9-0.3,24.5-5.9s-16.8-26.1-20.3-26.3c-3.5-0.2-11.6-0.9-13.4,2.1s1.4,6.8-1.3,6.6
			c-2.7-0.2-8.1,0.2-8.6-9.3c-0.5-9.5,2.4-6.8,5.9-6.8s17,1,17-2.1s-8-15.2-12.6-15.2s-11.9-0.2-12.2,3.5c-0.3,3.6-3.6,4.8-4.1,3
			c-0.5-1.8-5.7-11.9,1.2-13.4c6.9-1.5,11.7,0.8,12.2-1.7s0.3-7.2-6.9-6.3c-7.2,0.9-10.7,3.6-11.9,2.4s-5.4-9.8,1.4-10.1
			c6.8-0.3,12,0.6,11.9-2.7c-0.2-3.3-1.4-2.7-7.5-2.6c-6.2,0.2-12,1.1-12.5-3.2s1.7-8.3,5.9-6.9
			C264.6,281.3,265.8,279.2,265.8,279.2z"/>
	</g>
	<g>
		<path class="st1" d="M256.1,251.7c0,0,1.4,8.1,8.2,11.4c6.8,3.3,21.2,5.5,23.7,8.2c2.6,2.7,10.7,1.2,19.1,7.4
			c8.4,6.2,20.4,16.1,35.1,16.1s24.8,1.8,23.4-2.9c-1.4-4.7-20.4-13.8-30.8-17.1c-10.4-3.3-29.3-5.6-34.5-8.9
			c-5.3-3.3-8.2-0.8-19-4.1c-10.8-3.3-17.5-6.3-18.8-9C261.1,250.2,254.7,247.6,256.1,251.7z"/>
	</g>
	<g>
		<path class="st1" d="M292.9,285.1c3.8,0.8,12.2,4.2,14.5,7.2c2.3,3-3.6,9.3-6.3,7.8c-2.8-1.5-10.8-7.5-12-9.9
			C287.8,287.8,288.9,284.2,292.9,285.1z"/>
	</g>
	<g>
		<path class="st1" d="M310.8,307.2c0,0,0.8,6.6,5.7,10.2c4.9,3.6,15.6,3.6,15.6,0s-13-7.2-15.6-10.2
			C313.9,304.2,309.9,303.7,310.8,307.2z"/>
	</g>
	<g>
		<path class="st1" d="M339.6,303c4.1,2.4,14.4,9.4,12,12.3c-2.4,2.9-10.2-0.3-15.6-6.2C330.6,303.3,333.5,299.5,339.6,303z"/>
	</g>
	<g>
		<path class="st1" d="M334,335.3c0,0,44.3-12.8,50.2-20c6-7.2,20.3-2.1,14.1,3.2c-6.3,5.4-30.4,15.9-40.9,18.2s-18.3,5.7-21.6,5.7
			S329.2,336.8,334,335.3z"/>
	</g>
	<g>
		<path class="st1" d="M346.4,348.2c0,0,47.7-12.2,54.1-19.1c6.4-6.9,21.9-2,15.1,3.1c-6.8,5.1-32.7,15.1-44.1,17.4
			c-11.3,2.3-19.7,5.4-23.3,5.4C344.8,355.1,341.2,349.6,346.4,348.2z"/>
	</g>
	<g>
		<path class="st1" d="M354.6,360.4c0,0,55.6-8.5,63.4-15s25.3-0.3,17.1,4.4c-8.1,4.7-38.6,12.8-51.8,14.1s-23,3.9-27.1,3.6
			C352.3,367.3,348.6,361.4,354.6,360.4z"/>
	</g>
</g>
</svg>
