<?xml version="1.0" encoding="utf-8"?>
<!-- Generator: Adobe Illustrator 20.1.0, SVG Export Plug-In . SVG Version: 6.00 Build 0)  -->
<svg version="1.1" id="Capa_1" xmlns="http://www.w3.org/2000/svg" xmlns:xlink="http://www.w3.org/1999/xlink" x="0px" y="0px"
	 viewBox="0 0 500 500" style="enable-background:new 0 0 500 500;" xml:space="preserve">
<style type="text/css">
	.st0{fill:#EEEDEB;}
	.st1{fill:#7D8B25;}
</style>
<circle class="st0" cx="250.9" cy="249.9" r="249.9"/>
<g>
	<path class="st1" d="M209.7,290.7c9.5-18,17.2-27.5,24.6-33.7c7.4-6.2,4.1-8,4.1-8c-19.5,7.3-32.3,41.2-32.3,41.2
		C204.6,293.8,209.7,290.7,209.7,290.7z"/>
	<path class="st1" d="M397.8,166.2c-5.4-29.8-28.6-52.5-28.6-52.5c-41-31.3-107-45.4-107-45.4c-98.3-9.6-105.9,40-105.9,40
		c-17.8,1.2-27.1,20-27.1,20c-1.5,5,5.5,17.6,5.5,17.6c-10.5,24.4-0.6,30.9-0.6,30.9v-0.1c0,32.2,4.9,27.1,4.9,27.1
		c1.6,0.5,4.3-6.6,4.3-6.6c0,5.5,1.9,13.3,2.8,16.8v0l0,0c0.3,1.1,0.5,1.7,0.5,1.7l0,0l2.8,10.3c-5.9,21.8,0.9,38.8,0.9,38.8
		c9.7,26.7,13.6,43.7,9.3,58.2c-1.6,5.4-1.6,11.3-10.3,21.8c-3.3,3.9-5.7,5.7-7.2,6.5c-0.7,0.4-0.7,1.5,0,1.8c1.7,0.8,4.6,1.3,9-1.2
		c7.3-4.1,8.2-2.7,8.4-0.6c2,21-23.6,39.9-33.9,45.5s2.3,6.9,2.3,6.9c12.6,0.6,21.6-11.2,21.6-11.2s0.5,9-5.4,12.4
		c-5.9,3.4-3.3,6.9-3.3,6.9c16.6,0.7,27.5-11.8,27.5-11.8c10.9,28.9,32.5,36.6,32.5,36.6s40.5,18,77.9,2.9c37.4-15.1,65-5.7,65-5.7
		s3.8,2.8,12.1,3.3c8.3,0.5,11.2-13.4,11.2-13.4c1.3-11.7-18.9-53.5-22.2-72.5c-3.4-19,3.6-35.8,10.7-47.3
		c20.3-32.9,24.1-54.6,24.1-66.4c1.4-20-4.8-29-4.8-29c3.8,5.4,9.8,20.9,9.8,20.9c6.9,2.4-2.5-34.8-2.5-34.8
		c5.4,3.6,7.1,7.5,7.1,7.5C400.9,217.5,397.8,166.2,397.8,166.2z M134.1,176.4l0-0.3l0-0.1C134.1,176.2,134.1,176.3,134.1,176.4z
		 M185.1,91.9c3.8-7.3,15.7-11.9,15.7-11.9c4.8-2.3,16-4.8,27.3-3.3c12.6,1.6,10.2,16.4,11,26.8c0.8,10.3-3,16.7-6.2,12.9
		c-3.2-3.8,0.6-15.5-4-17.5c-4.6-2-8.9,1.6-6.4,10.5c2.6,8.9,8.3,13.5,0,13.1c-8.3-0.4-7.5-21.8-8.3-25.6c-0.8-3.8-7.9-2.8-5.8,6.4
		s1.6,15.3-5,11.1c-6.6-4.2-2.6-19.7-5.4-22.3c-2.8-2.6-4.4-1.6-5.6,2.4c-1.2,4-0.1,12-4.9,11.8C183,106,181.4,99.3,185.1,91.9z
		 M178.5,175.6c0,0-1.4-0.6-3.4,3.5c-4.9,9.5-13.5,28.3-16.9,24.1c0,0,1.6-20.3,10-31.7c0,0-0.6-4.3-4.3-0.2
		c-2.7,3-9.5,10.4-10.4,18.6c-0.9,8-1,5.7-2.1,5.5c0,0-1.9-0.8-3.1-9.6c-0.8-5.9,3.7-16.5,8-23.3c1.3-2.1,2.4-2.8,0.5-3.1
		c0,0-2.1-0.9-6.6,5c-2,2.7-5.9,7-6.6,13.8c-0.9,8.9-3,3-3,3s-2.7-23.3,10.8-35.2c0,0,7.4-13.8-1-10.1c0,0-5.3,4.5-6.6,14
		c-0.4,3.1-3,1.3-3.4-0.3c0,0-3-19.7,16.4-25.1c0,0,12.1-0.8,16.4-7.6c8.6-13.3,8.4-4.4,8.4-4.4s-8.3,19.3-0.2,27
		c0,0,3.4,2.2,3.4-2.2c0-7.3,1.2-17,4.3-21.1c2.7-3.7,3.3-6.4,7.6-3.7c0,0-3.4,16.8-0.2,25.9c2.9,8.4,4.7,9.2,4.9,8.6
		c0,0,0.5-0.2,0.3-1.7c-0.3-2.9,0.2-21,3.1-22.7c0,0,2.7-0.6,3.8,5.1c2.2,11.2,2.1,44.1-12.9,67c-2.2,3.4-11,7.4-8.2,1.9
		c0,0,4.3-9.2,5.5-16c1.2-6.9-1.1-5.6-2.5-5.1c0,0-3.2,12.8-12,22.5c-3.1,3.4-3.1,5.4-7,7.2c0,0-2.1-1-0.4-4.2
		C174.4,194.9,181.5,179.5,178.5,175.6z M185.2,251.9c0,0-17.7,0.9-13.4-10.9c0.9-5.5,8-7.3,13.9-8.2c6.4-1,12.6-0.6,13-1.2
		c1.6-3.2-1.2-7.5-4.3-7.6c-2.6-0.1-4.9-0.3-6.8-0.6c0,0-0.1,0-0.1,0c-0.2,0-0.3-0.1-0.5-0.1c-0.1,0-0.1,0-0.2,0
		c-0.2,0-0.3-0.1-0.5-0.1c-0.1,0-0.1,0-0.2,0c-0.1,0-0.3-0.1-0.4-0.1c-0.1,0-0.1,0-0.2,0c-0.1,0-0.3-0.1-0.4-0.1c0,0-0.1,0-0.1,0
		c-0.1,0-0.3-0.1-0.4-0.1c0,0,0,0-0.1,0c-0.7-0.2-1.2-0.4-1.7-0.6c0,0,0,0,0,0c-0.1,0-0.2-0.1-0.3-0.1c0,0-0.1,0-0.1,0
		c-0.1,0-0.2-0.1-0.3-0.1c0,0-0.1,0-0.1,0c-0.1,0-0.2-0.1-0.3-0.1c0,0-0.1,0-0.1,0c-0.1,0-0.2-0.1-0.2-0.1c0,0,0,0-0.1,0
		c-0.1,0-0.2-0.1-0.2-0.1c0,0,0,0,0,0c-0.3-0.2-0.6-0.5-0.8-0.7c0,0,0,0,0,0c0-0.1-0.1-0.1-0.1-0.2c0,0,0,0,0-0.1
		c0,0-0.1-0.1-0.1-0.1c0,0,0,0,0-0.1c0,0,0-0.1-0.1-0.1c0,0,0,0,0-0.1c0,0,0-0.1-0.1-0.1c0,0,0,0,0-0.1c0,0,0-0.1,0-0.1
		c0,0,0,0,0-0.1c0,0,0-0.1,0-0.1c0,0,0,0,0-0.1c0-0.2,0-0.4,0.1-0.5c0,0,0,0,0-0.1c0,0,0-0.1,0-0.1c0,0,0-0.1,0-0.1
		c0,0,0-0.1,0.1-0.1c0,0,0-0.1,0-0.1c0,0,0-0.1,0.1-0.1c0,0,0-0.1,0.1-0.1c0,0,0.1-0.1,0.1-0.1c0,0,0-0.1,0.1-0.1
		c0,0,0.1-0.1,0.1-0.1c0,0,0.1-0.1,0.1-0.1c0,0,0.1-0.1,0.1-0.1c0,0,0.1-0.1,0.1-0.1c0,0,0.1-0.1,0.1-0.1c0,0,0.1-0.1,0.1-0.1
		c0.1-0.1,0.1-0.1,0.2-0.2c0.1,0,0.1-0.1,0.2-0.1c0,0,0.1-0.1,0.1-0.1c0.1,0,0.1-0.1,0.2-0.1c0,0,0.1-0.1,0.1-0.1
		c0.1,0,0.1-0.1,0.2-0.1c0.1,0,0.1-0.1,0.2-0.1c0.1,0,0.1-0.1,0.2-0.1c0.1,0,0.1-0.1,0.2-0.1c0.1,0,0.1-0.1,0.2-0.1
		c0.1,0,0.1-0.1,0.2-0.1c0.1,0,0.2-0.1,0.2-0.1c0.1,0,0.1-0.1,0.2-0.1c0.1,0,0.2-0.1,0.3-0.1c0.1,0,0.1,0,0.2-0.1
		c0.1,0,0.2-0.1,0.3-0.1c0,0,0.1,0,0.1,0c0.2-0.1,0.3-0.1,0.5-0.2c0,0,0.1,0,0.1,0c0.1,0,0.2-0.1,0.3-0.1c0.1,0,0.1,0,0.2-0.1
		c0.1,0,0.2-0.1,0.3-0.1c0.1,0,0.1,0,0.2-0.1c0.1,0,0.2-0.1,0.3-0.1c0.1,0,0.2,0,0.2-0.1c0.1,0,0.2-0.1,0.3-0.1c0.1,0,0.2,0,0.2-0.1
		c0.1,0,0.2-0.1,0.4-0.1c0.1,0,0.2,0,0.2,0c0.1,0,0.3,0,0.4-0.1c0.1,0,0.2,0,0.2,0c0.2,0,0.3-0.1,0.5-0.1c0.1,0,0.1,0,0.2,0
		c0.2,0,0.4-0.1,0.7-0.1c0,0,0.1,0,0.1,0c0.2,0,0.4,0,0.6-0.1c0.1,0,0.2,0,0.2,0c0.2,0,0.3,0,0.5-0.1c0.1,0,0.2,0,0.3,0
		c0.1,0,0.3,0,0.4,0c0.1,0,0.2,0,0.3,0c0.1,0,0.3,0,0.4,0c0.1,0,0.2,0,0.3,0c0.1,0,0.3,0,0.4,0c0.1,0,0.2,0,0.3,0c0.2,0,0.3,0,0.5,0
		c0.1,0,0.2,0,0.3,0c0.2,0,0.4,0,0.5,0c0.1,0,0.2,0,0.3,0c0.3,0,0.5,0,0.8,0c0,0,40.7,4.8,39.9,0.9c0,0,7-7.6-24.8-6.7
		c-18.2,0.5-11.4-7.3-11.4-7.3s20.4-20,35.3-16.3c0,0-5,1.3,2.3,12.8c0,0,3.8,4.4,8.5,1.8c0,0-0.8-9.6,2-16.2c0-0.2,0.1-0.2,0.1-0.2
		c0,0.1-0.1,0.1-0.1,0.2c-0.2,0.6-0.4,3.1,2.2,11.7c3.4,11.2,7.7-4.6,7.7-4.6s0.6-10.8,5.7-7.9c5.1,3,21,14.4,21,14.4
		s17.2,7.6-1.4,7c-12.9-0.4-20.5,5.9-20.5,5.9s-2.9,6.6,8.4,3.8c13-3.2,30.7-3.6,44.7,0.7c0,0,0,0,0,0l0,0c0,0,0,0,0,0c0,0,0,0,0,0
		c0,0,0,0,0.1,0c0,0,0,0,0,0c0,0,0,0,0.1,0c0,0,0,0,0,0c0,0,0.1,0,0.1,0.1c0,0,0,0,0,0c0,0,0.1,0,0.1,0.1c0,0,0,0,0,0
		c0,0,0.1,0.1,0.1,0.1c0,0,0,0,0,0c0.1,0,0.1,0.1,0.2,0.1c0,0,0,0,0,0c0.1,0,0.1,0.1,0.2,0.1l0,0c0.5,0.3,1,0.8,1.7,1.3c0,0,0,0,0,0
		c0.1,0.1,0.2,0.2,0.3,0.3c0,0,0,0,0,0c0.1,0.1,0.2,0.2,0.3,0.3c0,0,0,0,0,0c0.1,0.1,0.2,0.2,0.3,0.3c0,0,0,0,0,0
		c0.1,0.1,0.2,0.2,0.4,0.3c0,0,0,0,0,0c0.9,0.8,1.8,1.9,2.8,3.1c0,0,0,0,0,0c0.1,0.2,0.3,0.3,0.4,0.5c0,0,0,0,0,0.1
		c0.1,0.2,0.2,0.3,0.4,0.5c0,0,0,0.1,0.1,0.1c0.1,0.2,0.2,0.3,0.3,0.5c0,0,0,0.1,0.1,0.1c0.1,0.2,0.2,0.3,0.3,0.5c0,0,0,0.1,0.1,0.1
		c0.1,0.2,0.2,0.4,0.4,0.6c0,0,0,0,0,0.1c0.1,0.2,0.3,0.4,0.4,0.6l0,0l0,0c2.4,3.9,4.5,9.2,5.1,16c0,0,0,0,0,0.1c0,0.1,0,0.2,0,0.2
		c0,0.2,0,0.4,0,0.6c0,0.2,0,0.3,0,0.5c0,0.2,0,0.4,0,0.6c0,0.2,0,0.3,0,0.5c0,0.2,0,0.4,0,0.6c0,0.2,0,0.3,0,0.5c0,0.2,0,0.4,0,0.6
		c0,0.2,0,0.4,0,0.5c0,0.2,0,0.4,0,0.6c0,0.2,0,0.4,0,0.6c0,0.2,0,0.4,0,0.6c0,0.2,0,0.4,0,0.6c0,0.2,0,0.4,0,0.6c0,0.2,0,0.4,0,0.6
		c0,0.2,0,0.4,0,0.6c0,0.1,0,0.2,0,0.2c0,0,0,0,0,0c-0.1,0.6-0.1,1.3-0.2,2c0,0-0.9-0.1-2.3-0.2c0,0,0,0-0.1,0c-0.1,0-0.2,0-0.3,0
		c0,0-0.1,0-0.1,0c-0.1,0-0.2,0-0.3,0c0,0-0.1,0-0.1,0c-0.2,0-0.3,0-0.5,0c0,0-0.1,0-0.1,0c-0.1,0-0.3,0-0.4,0c-0.1,0-0.1,0-0.2,0
		c-0.1,0-0.3,0-0.4,0c0,0-0.1,0-0.1,0c-0.2,0-0.3,0-0.5,0c0,0-0.1,0-0.1,0c-0.1,0-0.3,0-0.4,0c-0.1,0-0.1,0-0.2,0
		c-0.1,0-0.3,0-0.4,0c0,0-0.1,0-0.1,0c-0.2,0-0.3,0-0.5,0c0,0-0.1,0-0.1,0c-0.1,0-0.3,0-0.4,0c-0.1,0-0.1,0-0.2,0
		c-0.1,0-0.3,0-0.4,0c0,0-0.1,0-0.1,0c-0.2,0-0.3,0-0.5,0.1c0,0-0.1,0-0.1,0c-0.1,0-0.2,0-0.3,0.1c0,0-0.1,0-0.1,0
		c-0.1,0-0.2,0-0.4,0.1c0,0,0,0-0.1,0c-0.1,0-0.3,0.1-0.4,0.1c0,0-0.1,0-0.1,0c-0.1,0-0.2,0.1-0.3,0.1c0,0-0.1,0-0.1,0
		c-0.1,0-0.2,0.1-0.3,0.1c0,0,0,0,0,0c-0.1,0-0.2,0.1-0.3,0.1c0,0-0.1,0-0.1,0c-0.1,0-0.1,0.1-0.2,0.1c0,0,0,0-0.1,0.1
		c-0.1,0.1-0.1,0.1-0.2,0.2c0,0,0,0,0,0c-0.1,0.1-0.1,0.1-0.2,0.2c0,0,0,0,0,0.1c0,0.1-0.1,0.1-0.1,0.2c0,0,0,0,0,0.1
		c0,0.1,0,0.2-0.1,0.2c-0.3,3.8,12.6,4.7,12.6,4.7s4,1.5,0.5,4.6c-1.9,1.6-4.5,1.2-6.7,0.6c-1.5-0.3-2.6-0.8-2.6-0.8
		s-10.5-1.3-5.9,4.2c2.4,2.9,15.7,2.3,14.9,6.9c-1.9,11.2-17.6,68.8-63.9,73.2c0,0-1.8-3.9-3-8.1c-1.6-6.2-4.3-5.2-4.3-5.2
		s-3.2,2.1-0.9,12c0,0-0.4,6.2-5,1.9c-3.2-2.9-2.3-13.3-5.5-14c-3.2-0.6-3.2,7.2-3.1,14.6c0,0-22.1-7.7-21.6-1.8
		c0.6,6,5.9,7.4,13.2,11.6c0,0,1.5,1.6,6.2,3.4c5.7,1.6,15.7,4,30.7,5.9c0,0,13.9,3.6,4.8,18.3c-9.1,14.7-39.5,7.6-39.5,7.6
		s-8-1.7-15.8-11.6c-7.8-9.9-15.8-14.4-15.8-14.4s-6.8-1.9-2.8-14.7c4-12.8-1.3-24.9-1.3-24.9s-33.3-43.4-11.5-56.8
		c0,0,17.6-10.2-11.1-5.9c0,0-7.5-2.2,2.6-5.8C201.9,251.8,185.2,251.9,185.2,251.9z M275.8,407.4c0,0-36.8,17.2-63.9,0
		c0,0-11-6.6-21.7-27.7c0,0-2.7-11.6,3-12.8c6.4-1.5,5,1.8,15.3,22.5c0,0,10.4,30.7,66.1,12c0,0,5.9-6.4,12.3-4.6
		C287,396.8,290.4,400.5,275.8,407.4z M329.7,378.5c0,0-23.4,33.5-42.7,43.1s-47.4,10.4-59.4,10.8c-11.9,0.4-39.9-12.1-50.2-42
		c0,0,2.6-1.6,4.6-7.1c0,0,11.6,40.8,47.8,40.2c36.2-0.6,52.2-9.6,52.2-9.6s20.2-13.8,32.5-33c0,0,8.4-19.7,15-17.4
		C336.2,365.8,329.7,378.5,329.7,378.5z M385.2,189.2c0,0-14.8-27-19.3-18.1c0,0,18,32.1,10.5,34.4c0,0-11.8-22.1-11.6-14.7
		c0,0,10.7,39,3.8,37c0,0-11.8-41.9-15.1-34.6c0,0,9.6,29.1,3.1,27c0,0-25-47.2-30.6-39c0,0,12.5,32.1,3.6,28.6
		c0,0-13.4-30.7-18.3-25.1c0,0,10.1,17.6,8.7,22.2c0,0-5.7,5.4-21.6-31c0,0-9.6,8.4-3.2,18.5c0,0,0,9.6-25.9-19.7
		c0,0-10.8-14.3-32.4-3c0,0-17.3,0.6-17.8-16.4c0,0,2.8-9.1,0-18.8c0,0-0.4-7.3,4.8-3.1c2.1,1.7,7.1,11.2,7.7,13.8
		c0,0,3.4,3.3,4.1,0.2c0.6-2.6-1.1-11.2-4.1-16.9c0,0,0.9-2.9,4.1-1.3c3.4,1.7,9.1,8.1,10.5,11.5c0,0,11.1-0.1-3.2-20.9
		c0,0-2.8-12.5,20,11.9c0,0,8.1,14.2,10.5,13.1c2-1-1.3-12.6-5.1-20.8c0,0-0.4-5.8,4.7-1.9c2.4,1.8,8.9,5.6,12.1,14.4
		c0,0,3.4,18.6,7.2,17.3c6.4-2.1-3.3-40.2,6.9-33c0,0,3.1,3.6,4.8,9c3.5,10.8,6.8,29.1,9.2,25.5c0,0,4.7-1.3,1.5-19.3
		c-2.1-11.6,2.1-12.3,4-10.7c0,0,1.9,5.4,4.3,11.7c3.4,9,7.6,19.8,8.1,18.3c0,0,3.6,2.9,3.4-1.7c-0.2-6.3-4.4-21.3-5.6-28.1
		c-0.8-4.4-2.5-8.3,3.7-6c0,0,33.1,33.3,37,25.2c0,0,1.5-0.9-0.2-4.8c-7.5-17.1-21.4-25-20.8-28.3c0,0,11.7-6.2,33.7,30.4
		c0,0,11.6,18.3,9.4,35.6C391.4,177.6,392.2,199,385.2,189.2z"/>
	<path class="st1" d="M262,225.5c-1.5,0.7-2.2,1.4-2.5,2c-0.4,0.7-0.7,1.7-0.8,3.4c0,0,2.3,20,12.2,25.9c0,0,4.6,4.8-1.9,7.5
		c0,0-6,4.7-26,0c0,0-7.5,2.1,1.1,6.5c8.6,4.4,21.9,4.5,28.6-0.8c2.6-2.1,4.2-4.3,5-6.5c1.5,2.9,3.1,6.4,4.6,10.8
		c0,0,1.9,2.4,3.9,1.7c0,0,1-0.7,0.6-1.8c0,0-5.5-13.6-10.2-20.1c-1.2-2-2.8-3.8-4.8-5.1c-2.9-1.9-4.5-8-5.4-13.1
		c-0.5-2.8,1.8-5.3,4.6-5.1c2.1,0.1,4.2,0.2,6,0.2c1,0,1.9-0.5,2.4-1.3c1.5-2,5.4-2.1,10.2-1.6c2.8,0.3,4.3,4.6,1.6,3.4
		c-1.4-0.7-2.9,1-2.4,2c0.6,1.3,4,4.4,8.6,1.1c1.2-0.8,1.7-3.8-0.3-5.7c2.4,0.3,3.9,0.9,3.9,2.1c0,0.1,0,0.1,0,0.2
		c-0.1,0.7,0.5,1.3,1.1,1.4c7.7,1.2,14,2.7,14,2.7l10.8,1.5c1.5,0.2,2.6,1.4,2.7,2.8c-0.6-6.8-2.7-12-5.1-16
		C292.5,218.1,262,225.5,262,225.5z"/>
	<path class="st1" d="M197.7,232.9c0.9,0,1.8-0.3,2.5-1c1.5-1.4,5.6-1.8,10.5-1.7c1.4,0,2,3.2-0.2,2.2c-1.4-0.7-3.1,0.9-2.5,1.8
		c0,0,1.6,2.7,6.6,1.7c1.4-0.3,2.5-1.4,2.6-2.8c0.1-0.9,0.1-2-0.4-2.8c3,0.1,5,0.6,5.1,2.2c0,0.1,0,0.1,0,0.2
		c-0.1,0.9,0.7,1.5,1.6,1.4l4.7-0.7l8.4-1.4c2.2-0.4,3.4-2.9,2.3-4.8c-2.2-3.9-7.2-4.4-7.2-4.4c-15.6-1.6-30.9-0.8-43.5,0.7
		c-0.2,0-0.4-0.1-0.6-0.1c1.9,0.3,4.1,0.5,6.8,0.6c3,0.1,5.9,4.5,4.3,7.6c-0.3,0.7-6.6,0.2-13,1.2c0.1,0,0.3,0,0.4-0.1
		C189.7,232.6,193.8,232.7,197.7,232.9z"/>
	<path class="st1" d="M265.6,310.7c-4.9,6.3-11.7,4.9-15.2,2.6c-2.5-1.7-3.2-0.4-3.2-0.4c-3.4,3.9,8.1,7.7,8.1,7.7
		c7.8,1.3,11.7-5.8,11.7-5.8C268.8,309.2,265.6,310.7,265.6,310.7z"/>
	<path class="st1" d="M221.5,291.6c-4.6-1.5-3.7,2-3.7,2c1.5,4.1,11.9,7.2,11.9,7.2c18.8,7.5,32.4,6.4,32.4,6.4s12.9-1.1,24.6-10
		c6.9-5.2,11.3-4.4,11.3-8c0-1.7-0.6-6.4-5.4-4.8c-2,0.7-22.4-9.5-31.6-6.4c-3,1-5.6,0.2-5.6,0.2
		C238.5,277.2,224.8,292.6,221.5,291.6z M235.3,291.8c1.1-0.9,1.4-0.9,2.9-1.9c0,0,7.8-7.4,18.4-6.8c0,0,1.9,0.9,3.4,0
		c1.5-0.8,9.2-0.7,16.7,3.6c0,0,1.9,0.7,3.1,1.9c1.9,1.8,2.1,1.6,2.1,1.6s-0.2,2.3-5.8,5.1c-7.6,3.8-14.9,4.7-14.9,4.7
		s-9.8,1-21.4-2.8c0,0-5.3-0.7-6.3-3.1C233.4,294.2,233.6,293.3,235.3,291.8z"/>
</g>
</svg>
