<?xml version="1.0" encoding="utf-8"?>
<!-- Generator: Adobe Illustrator 20.1.0, SVG Export Plug-In . SVG Version: 6.00 Build 0)  -->
<svg version="1.1" id="Capa_1" xmlns="http://www.w3.org/2000/svg" xmlns:xlink="http://www.w3.org/1999/xlink" x="0px" y="0px"
	 viewBox="0 0 500 500" style="enable-background:new 0 0 500 500;" xml:space="preserve">
<style type="text/css">
	.st0{fill:#EEEDEB;}
	.st1{fill:#DB9837;}
</style>
<circle class="st0" cx="250.6" cy="249.5" r="248"/>
<g>
	<path class="st1" d="M143.1,136.9c0,0,6.4,3.8,8.4,14.1c1.4,7.3,4.9,9,4.9,9c10.7,8.7,9.4,20.1,9.4,20.1s-1.3,19,16.7,33.8
		c18,14.8,21.3,29,21.3,29s2.2,7.8,5.4,16.1c0.9,3.1,2.1,6.5,3.8,10c0,0,0.4,0.4,0.9,0.8c1.6,3.1,3.3,5.8,5,7.5
		c6.2,6.2,18.8,39,38.2,39.9c19.4,1,36.5-24.1,36.5-24.1s12.9-12.6,16.3-19c3.4-6.4,10.2-12.6,10.2-12.6
		c9.7-5.4,10.4-11.9,10.4-11.9c6.6-17.3,17.7-22.9,29.3-31.6c11.6-8.7,9.9-14.9,9.9-14.9s0.2-16.4,6.5-24.6s2.7-16.5,2.7-16.5
		s-1.5-14.6,8.2-18.6c9.7-4,6.5-8.3,6.5-8.3c-11.2-36.2-53.1-58.8-53.1-58.8s-12.7-5.2-22.5-6c-9.8-0.8-3,6.8-3,6.8s4.8,7.7,3,10.7
		c-1.7,3.1-8.8-7.2-8.8-7.2c-7.4-6.5-12.5-8.8-18.5-9.4c-6-0.5-3.9,4.2-3.9,4.2s7,8.5,3.8,10.6s-5.3-4-5.3-4
		c-10.2-12.2-15.4-11.8-32.2-11.7c-16.8,0.1-17.7,8.3-17.7,8.3s-4.4,13.9-10.3,14c-5.9,0,1.5-12.3,1.5-12.3c0.5-7.1-5.1-4.9-5.1-4.9
		c-16.7,0.3-24,9.6-26.2,15.4c-2.2,5.9-4.8,5.6-4.8,5.6c-4.3-8.4,6.2-21,6.2-21c-64.4,5.2-57.3,54.1-57.3,54.1
		C138.9,133,143.1,136.9,143.1,136.9z M327.9,187l10.7-61c0,0,2.9-18.2,13.2-17.6c10.3,0.6,22,24.9,22,24.9s3.8,8.6-4.9,14.4
		c-8.7,5.8-7.8,4.6-13.2,16.8c-5.4,12.2-17.1,36.5-24.7,33.9S327.9,187,327.9,187z M229.1,230.9c12.8,1,10.8,2.3,10.8,2.3
		s2.8,1.3-3.1,1.6c-5.9,0.3-13.1,2.4-13.1,2.4s-6.4,2.8-6.2-1.9C217.5,235.4,216.3,230,229.1,230.9z M259.7,313.7
		c-16.9,4.6-37.7-37.4-41.6-45.6c0.1-0.7,0.1-1.6,0-2.7c0,0-5-23.9,5.7-20c10.7,3.9,17.3,1.1,17.3,1.1s8.9-5.9,8.2-0.1
		c-0.6,5.8-1.4,10.3-4,12.7c-2.5,2.4-6.3,5.3-2,8.3c4.3,3.1,8.9,5.6,18.2,2.7c0,0,7.2-3.8,0.7-5.4c0,0-8.1,2-10.4,0.7
		c0,0,6.2-21.6,2.4-32.1c0,0-4.9-6.4-1-7.5c0,0,1.7-1.5,2.9,1.4c1.2,2.9,10.7-4.5,10.7-4.5s3.2-1.8,3.1,1.9c0,0-7,9.3-1.9,15.6
		c5.3,6.4,23.7,6.6,23.7,6.6s5.4,2.4,7-1.9c1.6-4.3-6.5-6.1-6.5-6.1s-15.3-4.4-16.8-6.8c0,0-2.3-3,10.3,0.2
		c12.7,3.3,17.2,0.7,17.2,0.7s6.8-3.3,9.2,7.3c2.4,10.6-1.8,16.8-4.2,21.2c-1.5,2.7-3.9,8.7-5.7,14.1
		C275.8,316.5,259.7,313.7,259.7,313.7z M216.6,117.7c9.6-34.7,34.8-30.5,34.8-30.5c39-0.1,36.5,35.1,36.5,35.1
		c-3,1.9-6.5,0.8-6.5,0.8c-11.7-1.6-10.7,3-10.7,3c-0.4,5.8-2.5,5-2.5,5c-9.5-1.7-35-0.5-38.6,0c-3.6,0.5,0-7.6,0-7.6s0-1.9-8.1-1.4
		C213.4,122.6,216.6,117.7,216.6,117.7z M237.5,146.1c-2.1-2-6.8-5.8-1.1-6.4c0,0,17.1-2.9,23.1,1.4c0,0,0,1.8-3.1,2.8
		c-3.1,1-2.1,6.5,1.8,7.4c3.9,0.9,15.3,1.2,12.4,12.9c-2.9,11.7-6.5,21.9-24.5,19.5c-18-2.4-19.1-10.7-19.1-10.7s-8.9-20.9,9.4-21.3
		C236.4,151.7,239.7,148.1,237.5,146.1z M164.1,93.1c5.3-2.1,11.6,19.2,11.6,19.2s17.3,61.6,32.4,79.1c0,0,4.2,7.6,37.3,6.4
		c0,0,14.5-4.3,37.4,0.5c0,0,21.8,6.1,28.2-12.6c6.5-18.6,5.2-54.4,5.2-54.4s-0.1-18,4.9-18.2c4.9-0.2,3.3,31,1.7,40.9
		c-1.6,9.9-5,41.2-16.3,52.8c-11.3,11.5-20.1,10.7-20.1,10.7s-3.4,0.2-8.8-2.1c-5.4-2.3-12.3,0.9-12.3,0.9s-29.4,11.1-60.2-17.3
		c0,0-26.3-39.7-39.2-85.5C166.1,113.7,158.9,95.2,164.1,93.1z M152.2,105.7c0,0,2.6-2.6,4.5,6.9c1.9,9.5,10.4,40.7,24.9,62.9
		c14.5,22.2,4.9,18.3,4.9,18.3s-6.9-5.5-15.2-21s-14.4-19-19.8-32.4C151.5,140.4,141,114.8,152.2,105.7z"/>
	<path class="st1" d="M242.7,173.7c7.5,1.9,7.4,0.5,12.4-2.8c5-3.4-2.6-13.1-6.3-20.2c-3.8-7.1-5.3-4.1-5.3-4.1s-3.4,2.7-5.4,14.2
		C236,172.2,242.7,173.7,242.7,173.7z"/>
	<path class="st1" d="M155.2,169.3c-5.4-1-6.2-10.4-6.2-10.4c-3.7-12.4-9.4-15.6-9.4-15.6c-3.4,11.7,18.2,42.4,18.2,42.4
		c1.7,2.6,1.6,0.2,1.7-7.5C159.7,170.5,155.2,169.3,155.2,169.3z"/>
	<path class="st1" d="M388.2,148c0,0,1.3,8.3-3.3,12.3c-4.6,4-2.9,12.1-2.9,12.1s0.7,7.9-4.3,13.3c-5,5.4-2.1,12.8-2.1,12.8
		c14.9-4.8,19.8-52.8,19.8-52.8C391.5,138.7,388.2,148,388.2,148z"/>
	<path class="st1" d="M369.2,302.1c27.4,3.4,29.8,1,29.8,1c8.8-9.9-24.4-9.3-24.4-9.3c-9.6-2.9,1-3.1,1-3.1s23.3-5.7,23.2-12.8
		c-0.1-7.1-23.2-0.6-23.2-0.6c-8.3,2.4-38.2-4.8-38.2-4.8c-16.8-6-38.1,26.4-38.1,26.4c-18.4,20.1-18,45.2-18,45.2
		c-1.5,9.2-6.7-1.2-6.7-1.2c-12.1-20.7-20.5-19.5-20.5-19.5s-6.2-0.9-13.9,12c-7.7,12.9-9,10.2-9,10.2c2.4-26.8-4.2-44.7-4.2-44.7
		c-6.2-11.5-16.9-6.4-16.9-6.4c-10.7,0.6-23.7,13.8-23.7,13.8c-6.2,3.1-2.2,6.2-2.2,6.2l14.3,15.2c16.1,22.5,36.1,40.4,44.2,45.3
		c8.1,4.9,8.8-14.3,8.8-14.3c0.1-13.4,2.5-17.5,2.5-17.5c6.9-4.8,16,15.4,16,15.4s11.1,22.7,21.5,23.6c10.4,1,13.7-6.3,13.7-6.3
		c8.8-16.4,29.4-39.7,36.6-46.3c7.2-6.6,5,2.1,5,2.1c-5,5.3-25,30.4-25,30.4c-20.9,34-36.4,35.9-36.4,35.9
		c-43.5,12.2-97.8-71.6-97.8-71.6c-6.3-9.2-7-5.1-7-5.1c3.3,30-3.2,48.7-3.2,48.7s-4.3,11.6-7.7,7.3s-5.8-4.4-5.8-4.4
		c-5.8,3,1,8.9,1,8.9c13.8,8.7,17.9-9.7,17.9-9.7s6.7-36.4,6.4-4c-0.3,32.4,16,37.8,16,37.8s7.8-0.5,1.7-7.5c-6.1-7-0.1-5-0.1-5
		s5.8,4.2,6.5-1.7c0.7-5.9,4.7,1.5,4.7,1.5s6.4,4.7,5.9,0.8c-0.5-3.9,1-3.9,1-3.9s2.5-3.3,6.9,8c4.4,11.3,11.4,16.3,12.4,17.5
		c1,1.2,3.4,0.3,4.8-5.1c1.5-5.4,14,8.2,14,8.2s5.8,3.9,4.8-1.4c-1-5.3,4.4-1.5,4.4-1.5s11,12.7,16.9,12.1c5.9-0.6,2-13.8,2-13.8
		s-0.8-11.4,5.4-0.7c6.2,10.8,15.3,12.9,19.7,11.1c4.4-1.8-2.6-12.3-2.6-12.3s-8.6-8.9-7.2-13.1c1.4-4.2,10.4,6.7,10.4,6.7
		s7,12.5,8.5,5.4s-7-16.7-9.7-19.9c-2.7-3.2,2.1-3.9,2.1-3.9s13.7,22.5,22.3,20.6c8.6-1.9-2.5-13-2.5-13s-10.7-14.8-11.1-18.8
		c-0.4-4,5.7,2.4,5.7,2.4s10.8,14.3,17,11.1c6.2-3.3,1.7-7.4,1.7-7.4s-12.8-13.1-15.7-18c-2.8-4.8,6.6,1.3,6.6,1.3
		s17.1,18.8,21.1,12.9c4-5.9-9.1-15.5-9.1-15.5s-6.3-7.6-5.3-13.4c1-5.7,6.6,2.3,6.6,2.3s2.5,6.4,11.6,10.9c9.1,4.6,8.5-2.8,8.5-2.8
		c-1.3-5.1-17.9-24-17.9-24s-4.7-5.5-0.4-5.4c4.3,0.1,17.6,13.4,17.6,13.4s9.1,10,10.3,2.2c1.2-7.8-19.2-23.8-19.2-23.8
		c-5-3.6-0.2-6.5-0.2-6.5s2.5-2,13.3,4.7c10.8,6.8,16.1,3.9,16.1,3.9c3.4-5.6-4.9-11.6-4.9-11.6s-10-6.2-17.4-7.4
		C365.5,304.5,369.2,302.1,369.2,302.1z"/>
	<path class="st1" d="M239.9,266.5c0,0-6.8,0.1-7,9c0,0-0.2,7.4,4.5,5.5c0,0,1-0.7,0-5.5c-1-4.7,2.4-3.8,2.4-3.8
		S243.9,267.4,239.9,266.5z"/>
	<path class="st1" d="M254.9,295.5c-2.4,0.4-3.9-1.3-3.9-1.3s-4.8-3.5-5.2,0.5c0,0,1.6,4.6,9.9,5.2c0,0,7.2,0.2,4.8-4.3
		C260.4,295.6,259.7,294.6,254.9,295.5z"/>
	<path class="st1" d="M267.5,263.7c-2.9,2,1,4.9,1,4.9c10.3,7.6,11,15.5,11,15.5c-0.2,1.3-0.1,6.5,4.7,5.7
		c4.7-0.8-3.1-15.7-3.1-15.7S270.5,261.7,267.5,263.7z"/>
	<path class="st1" d="M269.6,279.6c-2.9,0.8-6.9-0.3-6.9-0.3c-4.7-2.1-8.5-0.8-8.5-0.8s-6.1,1.4-9.2-1c-3.1-2.3-3-0.6-3-0.6
		c-2.9,0.6,0,5.3,0,5.3c4.6,8.6,12.9,8.5,12.9,8.5c10.3-0.1,14.2-2,16.5-3c2.3-1,4.1-4.2,3.6-7C274.5,278,269.6,279.6,269.6,279.6z
		 M257.3,286.2c-4.9,0.1-9.5-3.2-7.9-3.5c0,0,6.7-1.4,8.5-1.4c1.9,0,8.9,1.2,8.9,2.5C266.8,284.3,263.4,286.1,257.3,286.2z"/>
	<path class="st1" d="M174.3,350.2c8.2-15.2-1.3-14.5-1.3-14.5c-10.8,14.4-21.6,6-21.6,6s-13,21.5-25.9,4.4
		c-9.7-12.8-4.7-27.6-4.7-27.6s2.6-7.8,6.4-14.3c2.5-4.2,6.8-6.1,5.3-9.2c-3.3-7-9.3-2.3-12.9,3.1c1.4-4.5,4.6-11.9,4.6-11.9
		c1.9-10.1-7.3-4.5-7.3-4.5l-2.4-5.5c0,0-17.9-53-14.4-55c3.4-2,16.9,39.6,16.9,39.6s11.6,25.3,16.9,25.3c5.3,0,2.4-14.6,2.4-14.6
		s-1.4-56.5,4.6-56.5c2.9,0,4.6,58.6,4.6,58.6s3.6,26,7.8,33.3c3.9,6.8,2.9,14.2,2.9,14.2s0.3,4.3-4.3,6.6c-10.9,5.5-4-6-4-6
		s6.5-2.9,2.3-5.6c-4.5-2.9-10.1,4.9-10.1,4.9l-2.7,5.7c-1.2,3.6-1.2,5.7-1.2,5.7s-2.8-17.3,5.3-19.6c3.8-1.1,3.8-1.1,3.8-1.1
		c0.2,0.5,3.5-0.3,1.6-4.1c-1.8-3.5-6.4-1.9-6.5-2c-1.3-0.1-6.8-0.5-9.5,3.3c-8.8,12.5-7.2,21.6-7.2,21.6s-0.3,15,11.8,17.2
		c12.1,2.3,15.8-17.1,15.8-17.1s1.1,5,6.7,7.2c6.9,2.7,12.1-6.2,12.1-6.2s8.2-10.9,0-21.8c-8.2-10.9-3.3-28.9-3.3-28.9
		s0.7-9.6-4.7-8.7c-5.4,0.9-7.8,18.5-8.6,16.6c-0.8-1.8-2.8-19.9-3.1-50s-6.9-29.2-6.9-29.2s-3.6-1.6-6.1,2.8
		c-2.5,4.4-4.5,58.9-4.5,58.9s1.1,16.9-8.1-10.7s-19.1-45.3-19.1-45.3s-7.1-7.8-8.4,2.2c-1.3,10,16.9,68.4,16.9,68.4
		s-8.7,10.9-7.2,37c1.5,26.2,30.3,38.6,30.3,38.6c17.8,10,22.3,5.8,22.3,5.8S166,365.4,174.3,350.2z"/>
</g>
</svg>
