<?xml version="1.0" encoding="utf-8"?>
<!-- Generator: Adobe Illustrator 20.1.0, SVG Export Plug-In . SVG Version: 6.00 Build 0)  -->
<svg version="1.1" id="Capa_1" xmlns="http://www.w3.org/2000/svg" xmlns:xlink="http://www.w3.org/1999/xlink" x="0px" y="0px"
	 viewBox="0 0 500 500" style="enable-background:new 0 0 500 500;" xml:space="preserve">
<style type="text/css">
	.st0{fill:#EEEDEB;}
	.st1{fill:#A66A35;}
</style>
<circle class="st0" cx="250.1" cy="250" r="250"/>
<g>
	<g>
		<rect x="188.3" y="107.6" class="st1" width="120.8" height="16.1"/>
	</g>
	<g>
		<rect x="139.8" y="138.2" class="st1" width="88.8" height="16.1"/>
	</g>
	<g>
		<rect x="188.3" y="107.6" class="st1" width="16.1" height="46.7"/>
	</g>
	<g>
		<rect x="293" y="107.6" class="st1" width="16.1" height="46.7"/>
	</g>
	<g>
		<rect x="188.3" y="373.3" class="st1" width="120.8" height="16.1"/>
	</g>
	<g>
		<rect x="293" y="342.8" class="st1" width="16.1" height="46.7"/>
	</g>
	<g>
		<rect x="188.3" y="342.8" class="st1" width="16.1" height="46.7"/>
	</g>
	<g>
		<rect x="109.2" y="187.9" class="st1" width="16.1" height="120.8"/>
	</g>
	<g>
		<rect x="139.8" y="263.8" class="st1" width="16.1" height="93.5"/>
	</g>
	<g>
		<rect x="139.8" y="138.2" class="st1" width="16.1" height="93.5"/>
	</g>
	<g>
		<rect x="109.2" y="292.6" class="st1" width="79" height="16.1"/>
	</g>
	<g>
		<rect x="109.2" y="187.9" class="st1" width="79" height="16.1"/>
	</g>
	<g>
		<rect x="372.1" y="187.9" class="st1" width="16.1" height="120.8"/>
	</g>
	<g>
		<rect x="309.1" y="187.9" class="st1" width="79" height="16.1"/>
	</g>
	<g>
		<rect x="309.1" y="292.6" class="st1" width="79" height="16.1"/>
	</g>
	<g>
		<rect x="269" y="138.2" class="st1" width="88.8" height="16.1"/>
	</g>
	<g>
		<rect x="139.8" y="341.3" class="st1" width="88.8" height="16.1"/>
	</g>
	<g>
		<rect x="269" y="341.3" class="st1" width="88.8" height="16.1"/>
	</g>
	<g>
		<rect x="341.7" y="264" class="st1" width="16.1" height="93.5"/>
	</g>
	<g>
		<rect x="341.7" y="138.4" class="st1" width="16.1" height="93.5"/>
	</g>
	<g>
		<path class="st1" d="M246.9,185.3c-34.4,0-62.3,27.9-62.3,62.3c0,34.4,27.9,62.3,62.3,62.3s62.3-27.9,62.3-62.3
			C309.1,213.1,281.2,185.3,246.9,185.3z M246.9,296.8c-27.2,0-49.2-22-49.2-49.2s22-49.2,49.2-49.2s49.2,22,49.2,49.2
			S274,296.8,246.9,296.8z"/>
	</g>
</g>
</svg>
